<?xml version="1.0" encoding="UTF-8" standalone="no"?>
<!DOCTYPE svg PUBLIC "-//W3C//DTD SVG 1.1//EN" "http://www.w3.org/Graphics/SVG/1.1/DTD/svg11.dtd">
<svg version="1.1" xmlns="http://www.w3.org/2000/svg" xmlns:xlink="http://www.w3.org/1999/xlink" width="40" height="40">
  <clipPath id="hexagonPath">
      <path id="hexagonMask"
        d="m 38.491065,29.7233 c -1.376796,2.53399 -5.057989,4.69999 -7.645184,6.16318 -2.927995,1.656 -7.103586,3.94719 -10.511979,4.10639 -3.011195,0.1404 -6.837187,-1.78919 -9.471582,-3.17439 C 7.8807255,35.25049 3.6927336,32.97929 1.8427372,30.2697 0.20834046,27.8761 0.06394074,23.78051 0.01634083,20.93212 -0.03765906,17.70813 -0.04965904,13.14574 1.5087379,10.27694 2.8855352,7.74295 6.5667281,5.57696 9.1539229,4.11376 12.081917,2.45776 16.257509,0.16657 19.665903,0.00737 c 3.011193,-0.1404 6.837187,1.7892 9.471581,3.17439 2.981593,1.568 7.169587,3.83919 9.019583,6.54879 1.634397,2.39359 1.778797,6.48918 1.826395,9.33757 0.054,3.224 0.066,7.78639 -1.492397,10.65518 z"
      />
  </clipPath>
  <path
    id="hexagonMask"
    d="m 38.491065,29.7233 c -1.376796,2.53399 -5.057989,4.69999 -7.645184,6.16318 -2.927995,1.656 -7.103586,3.94719 -10.511979,4.10639 -3.011195,0.1404 -6.837187,-1.78919 -9.471582,-3.17439 C 7.8807255,35.25049 3.6927336,32.97929 1.8427372,30.2697 0.20834046,27.8761 0.06394074,23.78051 0.01634083,20.93212 -0.03765906,17.70813 -0.04965904,13.14574 1.5087379,10.27694 2.8855352,7.74295 6.5667281,5.57696 9.1539229,4.11376 12.081917,2.45776 16.257509,0.16657 19.665903,0.00737 c 3.011193,-0.1404 6.837187,1.7892 9.471581,3.17439 2.981593,1.568 7.169587,3.83919 9.019583,6.54879 1.634397,2.39359 1.778797,6.48918 1.826395,9.33757 0.054,3.224 0.066,7.78639 -1.492397,10.65518 z"
  />
</svg>
