<?xml version="1.0" encoding="utf-8"?>
<!-- Generator: Adobe Illustrator 18.0.0, SVG Export Plug-In . SVG Version: 6.00 Build 0)  -->
<!DOCTYPE svg PUBLIC "-//W3C//DTD SVG 1.1//EN" "http://www.w3.org/Graphics/SVG/1.1/DTD/svg11.dtd">
<svg version="1.1" id="Layer_1" xmlns="http://www.w3.org/2000/svg" xmlns:xlink="http://www.w3.org/1999/xlink" x="0px" y="0px"
	 viewBox="0 0 320 320" enable-background="new 0 0 320 320" xml:space="preserve">
<g>
	<g>
		<g>
			<polygon fill="#B7B19C" points="160,290.7 184.9,276.4 184.9,290.7 160,305 			"/>
		</g>
		<g>
			<polygon fill="#E7E3CA" points="135.4,276.4 160,262.1 184.9,276.4 160,290.7 			"/>
		</g>
		<g>
			<g>
				<polygon fill="#CBB243" points="170.5,282.4 180.9,276.3 160.1,264.4 139.4,276.3 149.7,282.4 160.1,276.4 				"/>
			</g>
			<g>
				<polygon fill="#A9932D" points="170.5,282.4 160.1,276.4 149.7,282.4 160.1,288.4 				"/>
			</g>
		</g>
		<g>
			<polygon fill="#F4F0D7" points="135.4,290.7 135.4,276.4 160,290.7 160,305 			"/>
		</g>
		<g>
			<path fill="none" stroke="#96481C" stroke-width="0.25" stroke-miterlimit="10" d="M139.4,293"/>
		</g>
		<g>
			<path fill="none" stroke="#96481C" stroke-width="0.25" stroke-miterlimit="10" d="M139.4,278.8"/>
		</g>
		<g>
			<path fill="none" stroke="#96481C" stroke-width="0.25" stroke-miterlimit="10" d="M143.6,295.5"/>
		</g>
		<g>
			<path fill="none" stroke="#96481C" stroke-width="0.25" stroke-miterlimit="10" d="M143.6,281.2"/>
		</g>
		<g>
			<path fill="none" stroke="#96481C" stroke-width="0.25" stroke-miterlimit="10" d="M147.7,297.7"/>
		</g>
		<g>
			<path fill="#E2E2D8" d="M116.2,212l1.2,1.6c-0.2-0.5-0.4-1-0.6-1.5C116.6,212.1,116.4,212.1,116.2,212z"/>
		</g>
		<g>
			<path fill="none" stroke="#96481C" stroke-width="0.25" stroke-miterlimit="10" d="M147.7,283.4"/>
		</g>
		<g>
			<path fill="none" stroke="#96481C" stroke-width="0.25" stroke-miterlimit="10" d="M153.9,301.4"/>
		</g>
		<g>
			<path fill="none" stroke="#96481C" stroke-width="0.25" stroke-miterlimit="10" d="M153.9,287.1"/>
		</g>
		<g>
			<ellipse fill="#E8CF58" cx="160" cy="232" rx="29.3" ry="16.4"/>
		</g>
		<g>
			<rect x="130.8" y="221.3" fill="#E8CF58" width="58.5" height="10.7"/>
		</g>
		<g>

				<rect x="112.6" y="255.5" transform="matrix(0.1049 0.9945 -0.9945 0.1049 373.7823 96.193)" fill="#86858C" width="41.7" height="0.4"/>
		</g>
		<g>
			<path fill="#A23D39" d="M138.1,231.6c-36.8-17-69.5-92.5-69.5-92.5c-25-75.5,14.7-90.8,14.7-90.8h153.4c0,0,39.7,15.4,14.7,90.8
				c0,0-32.7,75.3-69.5,92.3L138.1,231.6z"/>
			<path fill="#B83830" d="M138,232L138,232c-19.2-8.9-37.1-33.6-48.8-52.8c-12.6-20.8-20.9-39.7-21-39.9c-7.2-21.6-13.3-52-2-74
				C73,52,83.1,48,83.2,48l0.1,0h153.4l0.1,0c0.1,0,10.1,4.1,16.9,17.3c11.3,22.1,5.2,52.4-2,74c-0.1,0.2-8.3,19.1-21,39.9
				c-11.7,19.2-29.6,43.9-48.7,52.7l-0.2,0L138,232z M83.4,48.7c-0.9,0.4-10.1,4.5-16.5,17c-11.1,21.8-5,51.9,2.1,73.4
				c0.3,0.7,33,75.4,69.2,92.2l43.7-0.1c36.2-16.8,68.9-91.4,69.2-92.1c7.1-21.4,13.2-51.5,2.1-73.3c-6.4-12.5-15.6-16.6-16.5-17
				H83.4z"/>
		</g>
		<g>
			<path fill="#E8CF58" d="M119.8,27.1c0,0-63.8-1.9-38.3,107.5c0,0,13.5,51.5,61,99.4h35.2c47.4-47.8,61-99.4,61-99.4
				c25.5-109.4-38.1-107.7-38.1-107.7l-81.3,0.1"/>
		</g>
		<g>
			<path fill="#B83830" d="M147.4,234.7c0,0-63.6-93.8-49.8-161c13.8-67.2,49-53,49-53l27.2,0.1c0,0,34.8-14.4,48.6,52.9
				c13.8,67.2-49.8,161.1-49.8,161.1H147.4z"/>
			<path fill="#B83830" d="M172.8,235.1h-25.7l-0.1-0.2c-0.2-0.2-16.1-23.8-30.1-55.4c-12.9-29.1-26.9-71.1-19.7-106
				c9.8-47.5,30.2-54.6,41.5-54.6c4.4,0,7.4,1.1,7.9,1.3l27.1,0.1c0.5-0.2,3.5-1.3,7.9-1.3c11.2,0,31.4,7.1,41.1,54.5
				c7.2,34.8-6.8,76.9-19.7,106c-14,31.5-29.9,55.1-30.1,55.4L172.8,235.1z M147.6,234.3h24.8c1.5-2.2,16.6-25,29.9-55.1
				c12.9-29,26.8-70.9,19.7-105.5c-9.6-46.9-29.4-53.9-40.3-53.9c-4.6,0-7.7,1.2-7.7,1.3l-0.1,0l-27.3-0.1l-0.1,0
				c0,0-3.1-1.2-7.7-1.2c-11.1,0-31.1,7-40.8,54c-7.1,34.6,6.8,76.5,19.7,105.5C131,209.3,146.1,232.2,147.6,234.3z"/>
		</g>
		<g>
			<path fill="#E8CF58" d="M160.2,15c-3-0.1-34.5,0.7-28.5,86.2c6.3,89.7,28.8,135,28.8,135v1.1c0,0,22-46.3,28.2-136
				C194.9,12.1,160.7,14.9,160.2,15z"/>
		</g>
		<g>

				<rect x="186.9" y="231.9" transform="matrix(0.9952 9.772279e-02 -9.772279e-02 0.9952 25.7378 -17.0668)" fill="#86858C" width="0.4" height="44.6"/>
		</g>
		<g>

				<rect x="179.1" y="243.5" transform="matrix(0.9965 8.403900e-02 -8.403900e-02 0.9965 22.6554 -14.1439)" fill="#86858C" width="0.4" height="37.1"/>
		</g>
		<g>

				<rect x="122.4" y="262.2" transform="matrix(0.1174 0.9931 -0.9931 0.1174 385.4096 91.159)" fill="#86858C" width="37.9" height="0.4"/>
		</g>
		<g>

				<rect x="131" y="266.9" transform="matrix(0.1314 0.9913 -0.9913 0.1314 396.1503 82.1172)" fill="#86858C" width="40.4" height="0.4"/>
		</g>
		<g>

				<rect x="170.4" y="246.8" transform="matrix(0.9956 9.376183e-02 -9.376183e-02 0.9956 25.7881 -14.8173)" fill="#86858C" width="0.4" height="40.4"/>
		</g>
		<g>
			<rect x="159.8" y="248.5" fill="#86858C" width="0.4" height="42.3"/>
		</g>
		<g opacity="0.1">
			<path fill="#F0F7FC" d="M236.7,49.2h-0.6c-12.8-23.1-35.7-23.1-35.7-23.1h-0.1c-13-11-25.8-5.8-26.5-5.6
				c-6.9-6.5-13.5-5.4-13.7-5.4c-1.2,0-7.3-0.1-13.5,6.5h0c0,0-13.3-6.6-26.8,4.4h-0.8l0.6,0.3c0,0-23-0.3-35.8,22.8h-0.6
				c0,0-26.6,10.5-22.6,56.9c34.8-8,74.9-10,99.6,11.7c28.7,25.4,66.2,23.5,93.3,17.3C273.9,63.7,236.7,49.2,236.7,49.2z"/>
		</g>
		<g>
			<path fill="#DC4339" d="M130.9,227.5c1.3,5.8,14,10.3,29.4,10.3c15.1,0,27.5-4.3,29.3-9.9C172.3,236.2,146.3,237.3,130.9,227.5z"
				/>
		</g>
	</g>
</g>
</svg>
