<?xml version="1.0" encoding="utf-8"?>
<!-- Generator: Adobe Illustrator 18.0.0, SVG Export Plug-In . SVG Version: 6.00 Build 0)  -->
<!DOCTYPE svg PUBLIC "-//W3C//DTD SVG 1.1//EN" "http://www.w3.org/Graphics/SVG/1.1/DTD/svg11.dtd">
<svg version="1.1" id="Layer_1" xmlns="http://www.w3.org/2000/svg" xmlns:xlink="http://www.w3.org/1999/xlink" x="0px" y="0px"
	 viewBox="0 0 320 320" enable-background="new 0 0 320 320" xml:space="preserve">
<g>
	<g>
		<g>
			<g>
				<g>
					<path fill="#27241F" d="M110.8,211.4c0.9,7.6,17,12,36,9.7c19-2.2,33.6-10.2,32.7-17.8c-0.9-7.6-17-12-36-9.7
						C124.6,195.8,109.9,203.8,110.8,211.4z"/>
				</g>
				<g>
					<path fill="#A6A08C" d="M114.8,31.8c0.2,2.1,4.7,3.3,9.9,2.7c5.2-0.6,9.3-2.8,9-4.9c-0.2-2.1-4.7-3.3-9.9-2.7
						C118.6,27.5,114.5,29.7,114.8,31.8z"/>
				</g>
				<g>
					<path fill="#27241F" d="M179.5,203.3c0,0,5.6-26.7,5.4-35.7c-0.2-7.7-3.1-23.2-6.2-30.3c-4.6-10.6-22.7-27.1-26.8-37.9
						c-2-5.2-2.3-16.5-2.6-22c-0.5-7.8,2.7-24-0.1-31.3c-2.1-5.2-10-14.6-15.3-16.6c-4.5-1.7-15-0.4-19,2.2
						c-4.7,3.1-10.2,14.1-11,19.7c-1.1,7.8,5.8,22.8,7.2,30.5c1,5.5,3.3,16.5,2.6,22c-1.5,11.5-15.3,31.7-17.3,43.1
						c-1.3,7.6-0.6,23.3,1,30.9c1.9,8.8,13.5,33.4,13.5,33.4L179.5,203.3z"/>
				</g>
			</g>
			<g>
				<g>
					<path fill="#27241F" d="M106.7,213.8c0.9,7.6,17,12,36,9.7c19-2.2,33.6-10.2,32.7-17.8c-0.9-7.6-17-12-36-9.7
						C120.5,198.2,105.8,206.2,106.7,213.8z"/>
				</g>
				<g>
					<path fill="#A6A08C" d="M110.7,34.1c0.3,2.1,4.7,3.3,9.9,2.7c5.2-0.6,9.3-2.8,9-4.9c-0.2-2.1-4.7-3.3-9.9-2.7
						C114.5,29.8,110.5,32,110.7,34.1z"/>
				</g>
				<g>
					<path fill="#C9C4AC" d="M175.4,205.7c0,0,5.6-26.7,5.4-35.7c-0.2-7.7-3.1-23.2-6.2-30.3c-4.6-10.6-22.7-27-26.8-37.9
						c-2-5.2-2.3-16.5-2.6-22c-0.5-7.8,2.7-24-0.1-31.3c-2.1-5.2-10-14.6-15.3-16.6c-4.5-1.7-15-0.4-19,2.2
						c-4.7,3.1-10.2,14.1-11,19.7c-1.1,7.8,5.8,22.8,7.2,30.5c1,5.5,3.3,16.5,2.6,22c-1.5,11.5-15.3,31.7-17.3,43.1
						c-1.3,7.6-0.6,23.3,1,30.9c1.9,8.8,13.5,33.4,13.5,33.4L175.4,205.7z"/>
				</g>
			</g>
			<g>
				<path fill="#27241F" d="M109.5,106.4c0,0,12,4.2,24.1,2.7c12.1-1.4,18.3-9.6,18.3-9.6l-2.2-14.2c0,0-5.4,7.4-17.9,8.8
					c-12.5,1.5-23.8-3.9-23.8-3.9L109.5,106.4z"/>
			</g>
		</g>
		<g>
			<g>
				<g>
					<path fill="#D2D1C9" d="M111.6,211.9c0.9,7.6,17,12,36,9.7c19-2.2,33.6-10.2,32.7-17.8c-0.9-7.6-17-12-36-9.7
						C125.4,196.3,110.7,204.3,111.6,211.9z"/>
				</g>
				<g>
					<path fill="#D2D1C9" d="M115.6,32.3c0.2,2.1,4.7,3.3,9.9,2.7c5.2-0.6,9.3-2.8,9-4.9c-0.2-2.1-4.7-3.3-9.9-2.7
						C119.4,28,115.3,30.2,115.6,32.3z"/>
				</g>
				<g>
					<path fill="#D2D1C9" d="M180.3,203.8c0,0,5.6-26.7,5.4-35.7c-0.2-7.7-3.1-23.2-6.2-30.3c-4.6-10.6-22.7-27-26.8-37.9
						c-2-5.2-2.3-16.5-2.6-22c-0.5-7.8,2.7-24-0.1-31.3c-2.1-5.2-10-14.6-15.3-16.6c-4.5-1.7-15-0.4-19,2.2
						c-4.7,3.1-10.2,14.1-11,19.7c-1.1,7.8,5.8,22.8,7.2,30.5c1,5.5,3.3,16.5,2.6,22c-1.5,11.5-15.3,31.7-17.3,43.1
						c-1.3,7.6-0.6,23.3,1,30.9c1.9,8.8,13.5,33.4,13.5,33.4L180.3,203.8z"/>
				</g>
			</g>
			<g>
				<g>
					<path fill="#FFFDF8" d="M107.5,214.3c0.9,7.6,17,12,36,9.7c19-2.2,33.6-10.2,32.7-17.8c-0.9-7.6-17-12-36-9.7
						C121.3,198.7,106.6,206.7,107.5,214.3z"/>
				</g>
				<g>
					<path fill="#FFFDF8" d="M111.5,34.6c0.3,2.1,4.7,3.3,9.9,2.7c5.2-0.6,9.3-2.8,9-4.9c-0.2-2.1-4.7-3.3-9.9-2.7
						C115.3,30.3,111.3,32.5,111.5,34.6z"/>
				</g>
				<g>
					<path fill="#FFFDF8" d="M176.2,206.2c0,0,5.6-26.7,5.4-35.7c-0.2-7.7-3.1-23.2-6.2-30.3c-4.6-10.6-22.7-27.1-26.8-37.9
						c-2-5.2-2.3-16.5-2.6-22c-0.5-7.8,2.7-24-0.1-31.3c-2.1-5.3-10-14.6-15.3-16.6c-4.5-1.7-15-0.4-19,2.2
						c-4.7,3.1-10.2,14.1-11,19.7c-1.1,7.8,5.8,22.8,7.2,30.5c1,5.5,3.3,16.5,2.6,22C108.7,118.4,95,138.5,93,150
						c-1.3,7.6-0.6,23.3,1,30.9c1.9,8.8,13.5,33.4,13.5,33.4L176.2,206.2z"/>
				</g>
			</g>
			<g>
				<path fill="#5C2C24" d="M110.3,106.9c0,0,12,4.2,24.1,2.7c12.1-1.4,18.3-9.6,18.3-9.6l-2.2-14.2c0,0-5.4,7.4-17.9,8.9
					c-12.5,1.5-23.8-3.9-23.8-3.9L110.3,106.9z"/>
			</g>
		</g>
	</g>
	<g>
		<g>
			<g>
				<g>
					<path fill="#27241F" d="M131.9,207.9c-2.5,7.2,10,18.2,28.1,24.5c18,6.3,34.7,5.5,37.2-1.7c2.5-7.2-10-18.2-28.1-24.5
						C151,199.9,134.4,200.7,131.9,207.9z"/>
				</g>
				<g>
					
						<ellipse transform="matrix(-0.9443 -0.3291 0.3291 -0.9443 416.79 173.094)" fill="#C9C4AC" cx="223" cy="51.3" rx="9.6" ry="3.8"/>
				</g>
				<g>
					<path fill="#C9C4AC" d="M197.1,230.7c0,0,16.7-21.5,20.4-29.7c3.2-7,7.3-22.2,7.7-29.9c0.5-11.6-8.5-34.2-7.6-45.8
						c0.5-5.5,5.2-15.8,7.3-20.9c3-7.2,13-20.4,13.6-28.2c0.4-5.6-2.6-17.5-6.5-21.6c-3.3-3.4-13.3-6.9-18-6.3
						c-5.6,0.8-15.4,8.2-18.5,12.9c-4.4,6.5-4.7,23-6.9,30.6c-1.5,5.3-4.2,16.3-7.3,21c-6.4,9.7-27.6,21.8-34.4,31.2
						c-4.5,6.3-10.7,20.7-12.6,28.2c-2.2,8.8-2.5,36-2.5,36L197.1,230.7z"/>
				</g>
			</g>
			<g>
				<g>
					<path fill="#27241F" d="M136.5,207.6c-2.5,7.2,10,18.2,28.1,24.5c18,6.3,34.7,5.5,37.2-1.7c2.5-7.2-10-18.2-28.1-24.5
						C155.7,199.6,139.1,200.3,136.5,207.6z"/>
				</g>
				<g>
					<path fill="#C9C4AC" d="M218.7,47.8c-0.7,2,2.8,5,7.8,6.8c5,1.7,9.6,1.5,10.3-0.5c0.7-2-2.8-5-7.8-6.8
						C224,45.6,219.4,45.8,218.7,47.8z"/>
				</g>
				<g>
					<path fill="#27241F" d="M201.8,230.3c0,0,16.7-21.5,20.4-29.7c3.2-7,7.3-22.2,7.7-29.9c0.5-11.6-8.5-34.2-7.6-45.8
						c0.5-5.5,5.2-15.8,7.3-21c3-7.2,13-20.4,13.6-28.2c0.4-5.6-2.6-17.5-6.5-21.6c-3.3-3.5-13.3-6.9-18.1-6.3
						c-5.6,0.8-15.4,8.2-18.5,12.9c-4.4,6.5-4.7,23-6.9,30.6c-1.5,5.3-4.2,16.3-7.3,21c-6.4,9.7-27.6,21.8-34.4,31.2
						c-4.5,6.3-10.7,20.7-12.6,28.2c-2.2,8.7-2.5,36-2.5,36L201.8,230.3z"/>
				</g>
			</g>
			<g>
				<path fill="#B7B19C" d="M181.3,112.5c0,0,8.9,9,20.5,13c11.5,4,20.6-0.6,20.6-0.6l4.3-13.8c0,0-8.1,4.3-19.9,0.1
					c-11.9-4.2-19.7-14-19.7-14L181.3,112.5z"/>
			</g>
		</g>
		<g>
			<g>
				<g>
					<path fill="#D2D1C9" d="M138.3,207.5c-2.5,7.2,10,18.2,28.1,24.5s34.7,5.5,37.2-1.7c2.5-7.2-10-18.2-28.1-24.5
						C157.4,199.5,140.8,200.2,138.3,207.5z"/>
				</g>
				<g>
					<path fill="#D2D1C9" d="M220.4,47.7c-0.7,2,2.8,5,7.8,6.8c5,1.7,9.6,1.5,10.3-0.5c0.7-2-2.8-5-7.8-6.8
						C225.7,45.5,221.1,45.7,220.4,47.7z"/>
				</g>
				<g>
					<path fill="#D2D1C9" d="M203.5,230.2c0,0,16.7-21.5,20.4-29.7c3.2-7,7.3-22.2,7.7-29.9c0.5-11.6-8.5-34.2-7.6-45.8
						c0.5-5.5,5.2-15.8,7.3-20.9c3-7.2,13-20.4,13.6-28.2c0.4-5.6-2.6-17.5-6.5-21.6c-3.3-3.4-13.3-6.9-18.1-6.3
						c-5.6,0.8-15.4,8.2-18.5,12.9c-4.4,6.5-4.7,23-6.9,30.6c-1.5,5.3-4.2,16.3-7.3,21c-6.4,9.7-27.6,21.8-34.4,31.2
						c-4.5,6.3-10.7,20.7-12.6,28.2c-2.2,8.7-2.5,36-2.5,36L203.5,230.2z"/>
				</g>
			</g>
			<g>
				<g>
					<path fill="#FFFDF8" d="M133.6,207.8c-2.5,7.2,10,18.2,28.1,24.5c18,6.3,34.7,5.5,37.2-1.7c2.5-7.2-10-18.2-28.1-24.5
						C152.7,199.8,136.1,200.6,133.6,207.8z"/>
				</g>
				<g>
					<path fill="#FFFDF8" d="M215.7,48c-0.7,2,2.8,5,7.8,6.8c5,1.7,9.6,1.5,10.3-0.5c0.7-2-2.8-5-7.8-6.8
						C221,45.8,216.4,46,215.7,48z"/>
				</g>
				<g>
					<path fill="#FFFDF8" d="M198.8,230.6c0,0,16.7-21.5,20.4-29.7c3.2-7,7.3-22.2,7.7-29.9c0.5-11.6-8.6-34.2-7.6-45.8
						c0.5-5.5,5.2-15.8,7.3-21c3-7.2,13-20.4,13.6-28.2c0.4-5.6-2.6-17.5-6.5-21.6c-3.3-3.5-13.3-6.9-18-6.3
						c-5.6,0.8-15.4,8.2-18.5,12.9c-4.4,6.5-4.7,23-6.9,30.6c-1.5,5.3-4.2,16.3-7.3,21c-6.4,9.7-27.6,21.8-34.4,31.2
						c-4.5,6.3-10.7,20.7-12.6,28.2c-2.2,8.8-2.5,36-2.5,36L198.8,230.6z"/>
				</g>
			</g>
			<g>
				<path fill="#5C2C24" d="M183,112.4c0,0,8.9,9,20.5,13c11.5,4,20.6-0.6,20.6-0.6l4.3-13.8c0,0-8.1,4.3-19.9,0.1
					c-11.9-4.2-19.7-14-19.7-14L183,112.4z"/>
			</g>
		</g>
	</g>
	<g>
		<g>
			<g>
				<g>
					<path fill="#27241F" d="M191.6,277.4c0.2,7.7,15.9,13.4,35,12.7c19.1-0.6,34.4-7.3,34.1-15c-0.3-7.7-15.9-13.4-35-12.7
						C206.6,263.1,191.4,269.8,191.6,277.4z"/>
				</g>
				<g>
					<path fill="#B7B19C" d="M210.8,98.8c0.1,2.1,4.4,3.7,9.7,3.5c5.3-0.2,9.5-2,9.4-4.1c-0.1-2.1-4.4-3.7-9.7-3.5
						C214.9,94.8,210.7,96.7,210.8,98.8z"/>
				</g>
				<g>
					<path fill="#B7B19C" d="M260.7,275.2c0,0,7.8-26.1,8.4-35.1c0.5-7.7-1.2-23.4-3.6-30.7c-3.7-11-20.3-28.9-23.5-40
						c-1.5-5.3-0.9-16.6-0.7-22.2c0.2-7.8,4.8-23.7,2.5-31.2c-1.6-5.4-8.7-15.4-13.8-17.8c-4.3-2-14.9-1.7-19.1,0.6
						c-4.9,2.7-11.4,13.2-12.6,18.7c-1.7,7.6,3.9,23.2,4.6,31c0.5,5.5,1.9,16.8,0.7,22.2c-2.5,11.3-17.9,30.3-20.9,41.5
						c-2,7.5-2.6,23.2-1.6,30.9c1.1,8.9,10.7,34.5,10.7,34.5L260.7,275.2z"/>
				</g>
			</g>
			<g>
				<g>
					<path fill="#27241F" d="M187.4,279.4c0.3,7.7,15.9,13.4,35,12.7c19.1-0.6,34.3-7.3,34.1-15c-0.3-7.7-15.9-13.4-35-12.7
						C202.4,265,187.1,271.8,187.4,279.4z"/>
				</g>
				<g>
					<path fill="#B7B19C" d="M206.5,100.8c0.1,2.1,4.4,3.7,9.7,3.5c5.3-0.2,9.5-2,9.4-4.2c-0.1-2.1-4.4-3.7-9.7-3.5
						C210.7,96.8,206.5,98.7,206.5,100.8z"/>
				</g>
				<g>
					<path fill="#C9C4AC" d="M256.5,277.2c0,0,7.8-26.1,8.4-35.1c0.5-7.7-1.2-23.4-3.6-30.7c-3.7-11-20.3-28.9-23.5-40
						c-1.5-5.3-0.9-16.6-0.7-22.2c0.2-7.8,4.8-23.7,2.5-31.2c-1.6-5.4-8.7-15.4-13.8-17.8c-4.3-2-14.9-1.7-19.1,0.6
						c-4.9,2.7-11.4,13.2-12.7,18.7c-1.7,7.6,3.9,23.2,4.6,31c0.5,5.5,1.9,16.8,0.7,22.2c-2.5,11.3-17.9,30.3-20.9,41.5
						c-2,7.5-2.6,23.2-1.6,30.9c1.1,9,10.7,34.5,10.7,34.5L256.5,277.2z"/>
				</g>
			</g>
			<g>
				<path fill="#B7B19C" d="M199.2,172.6c0,0,11.6,5.2,23.8,4.8c12.2-0.4,19-8,19-8l-1-14.4c0,0-6,6.9-18.5,7.3
					c-12.6,0.4-23.4-5.9-23.4-5.9L199.2,172.6z"/>
			</g>
		</g>
		<g>
			<g>
				<g>
					<path fill="#D2D1C9" d="M192.4,278.5c0.2,7.7,15.9,13.4,35,12.7c19.1-0.6,34.3-7.3,34.1-15c-0.3-7.7-15.9-13.4-35-12.7
						C207.5,264.1,192.2,270.9,192.4,278.5z"/>
				</g>
				<g>
					<path fill="#D2D1C9" d="M211.6,99.9c0.1,2.1,4.4,3.7,9.7,3.5c5.3-0.2,9.5-2,9.4-4.2c-0.1-2.1-4.4-3.7-9.7-3.5
						C215.8,95.9,211.5,97.8,211.6,99.9z"/>
				</g>
				<g>
					<path fill="#D2D1C9" d="M261.6,276.3c0,0,7.8-26.1,8.4-35.1c0.4-7.7-1.2-23.4-3.6-30.7c-3.7-11-20.3-28.9-23.5-40
						c-1.5-5.3-0.9-16.6-0.7-22.2c0.2-7.8,4.8-23.7,2.5-31.2c-1.6-5.4-8.7-15.4-13.8-17.8c-4.3-2-14.9-1.7-19.1,0.6
						c-4.9,2.7-11.4,13.2-12.6,18.7c-1.7,7.6,3.9,23.2,4.6,31c0.5,5.5,1.9,16.8,0.7,22.2c-2.5,11.3-17.9,30.3-20.9,41.5
						c-2,7.5-2.6,23.2-1.6,30.9c1.1,8.9,10.7,34.5,10.7,34.5L261.6,276.3z"/>
				</g>
			</g>
			<g>
				<g>
					<path fill="#FFFDF8" d="M188.2,280.5c0.2,7.7,15.9,13.4,35,12.7c19.1-0.6,34.3-7.3,34.1-15c-0.3-7.7-15.9-13.4-35-12.7
						C203.2,266.1,187.9,272.8,188.2,280.5z"/>
				</g>
				<g>
					<path fill="#FFFDF8" d="M207.3,101.9c0.1,2.1,4.4,3.7,9.7,3.5c5.3-0.2,9.5-2,9.4-4.1c-0.1-2.1-4.4-3.7-9.7-3.5
						C211.5,97.9,207.3,99.7,207.3,101.9z"/>
				</g>
				<g>
					<path fill="#FFFDF8" d="M257.3,278.2c0,0,7.8-26.1,8.4-35.1c0.4-7.7-1.2-23.4-3.6-30.7c-3.7-11-20.3-28.9-23.5-40
						c-1.5-5.3-0.9-16.6-0.7-22.2c0.2-7.8,4.8-23.7,2.5-31.2c-1.6-5.4-8.7-15.4-13.8-17.8c-4.3-2-14.9-1.7-19.1,0.6
						c-4.9,2.7-11.4,13.2-12.7,18.7c-1.7,7.6,3.9,23.2,4.6,31c0.5,5.5,1.9,16.8,0.7,22.2c-2.5,11.3-17.9,30.3-20.9,41.5
						c-2,7.5-2.6,23.2-1.6,30.9c1.1,8.9,10.7,34.5,10.7,34.5L257.3,278.2z"/>
				</g>
			</g>
			<g>
				<path fill="#5C2C24" d="M200,173.7c0,0,11.6,5.2,23.8,4.8c12.2-0.4,19-8,19-8l-1-14.4c0,0-6,6.9-18.5,7.3
					c-12.6,0.4-23.4-5.9-23.4-5.9L200,173.7z"/>
			</g>
		</g>
	</g>
	<g>
		<g>
			<path fill="#20292C" d="M153.5,254.3c16.8-33.6,6.3-71.4-23.1-92.4c-4.8-4-10-8.3-15.5-11.9c1.5-0.1,2.9-0.2,4.4-0.2
				c38.3,0,69.4,31.1,69.4,69.4c0,38.3-31.1,69.4-69.4,69.4c-2.5,0-5-0.1-7.4-0.4C129.6,282.8,145.3,270.9,153.5,254.3z"/>
		</g>
		<g>
			<path fill="#2A373F" d="M50,219.2c0-36.8,28.7-66.9,64.9-69.2c5.6,3.6,10.7,7.9,15.5,11.9c29.4,21,39.9,58.8,23.1,92.4
				c-8.3,16.6-23.9,28.5-41.6,33.8C77.1,284.4,50,255,50,219.2z"/>
		</g>
		<g>
			<path fill="#020400" d="M103.2,183.6c0,3.3,4.2,6,9.5,6c5.2,0,9.5-2.7,9.5-6c0-3.3-4.2-6-9.5-6
				C107.4,177.6,103.2,180.3,103.2,183.6z"/>
		</g>
		<g>
			<path fill="#020400" d="M117.6,167.8c0,3.3,4.2,6,9.5,6c5.2,0,9.5-2.7,9.5-6c0-3.3-4.2-6-9.5-6
				C121.8,161.8,117.6,164.5,117.6,167.8z"/>
		</g>
		<g>
			<path fill="#020400" d="M88.8,165c0,3.3,4.2,6,9.5,6c5.2,0,9.5-2.7,9.5-6c0-3.3-4.2-6-9.5-6C93.1,159,88.8,161.7,88.8,165z"/>
		</g>
	</g>
</g>
</svg>
