<?xml version="1.0" encoding="utf-8"?>
<!-- Generator: Adobe Illustrator 18.0.0, SVG Export Plug-In . SVG Version: 6.00 Build 0)  -->
<!DOCTYPE svg PUBLIC "-//W3C//DTD SVG 1.1//EN" "http://www.w3.org/Graphics/SVG/1.1/DTD/svg11.dtd">
<svg version="1.1" id="Layer_1" xmlns="http://www.w3.org/2000/svg" xmlns:xlink="http://www.w3.org/1999/xlink" x="0px" y="0px"
	 viewBox="0 0 320 320" enable-background="new 0 0 320 320" xml:space="preserve">
<g>
	<path fill="#254164" d="M224,162.7c0-43.9-0.1-137.5-0.2-155.7c0-1.7-1.4-3.1-3.2-3.1c-58.3,2.1-124,62.2-124.5,157.8l-0.2-0.1
		v115.7c0,1.1,0.6,2.1,1.5,2.7l61.3,35.2c1,0.5,2.1,0.5,3.1,0l60.4-35c0.9-0.5,1.5-1.6,1.5-2.7V162.8L224,162.7z"/>
	<g>
		<g>
			<path fill="#5EA5D2" d="M157.1,313.4c-0.4,0-0.9-0.1-1.3-0.3l-58.1-33.5c-0.8-0.5-1.3-1.3-1.3-2.2V162.5l0.2,0.1l0-0.9
				c0.3-53.9,20.7-89.8,37.8-110.5c21.7-26.2,50.7-43.1,79.6-46.3c0.1,0,0.2,0,0.3,0c1.3,0,2.1,0.9,2.4,1.7c0.3,0.8,0.3,1.9-0.7,2.8
				c-34.9,31.6-56.6,104-56.7,189.2l-0.1-0.1l0.4,112.2c0,0.7-0.3,1.3-0.7,1.8C158.5,313.1,157.8,313.4,157.1,313.4z"/>
			<path fill="#254164" d="M214.4,5.4c1,0,1.7,0.7,1.9,1.3c0.3,0.8,0.1,1.7-0.5,2.3C199.1,24.1,185,49,175,81
				c-10.4,33.3-15.9,73.7-16.1,116.7l-0.1-0.1l0,1.7l0.4,111.4c0,0.7-0.3,1.2-0.6,1.5c-0.4,0.4-0.9,0.6-1.5,0.6
				c-0.4,0-0.7-0.1-1-0.3L98,279.1c-0.6-0.4-1-1.1-1-1.8V163.3l0.2,0.1l0-1.7c0.1-21.9,3.7-42.9,10.6-62.2c6.4-17.8,15.5-34,27.1-48
				c21.6-26.1,50.5-42.9,79.3-46.1C214.3,5.4,214.4,5.4,214.4,5.4 M214.4,4.4c-0.1,0-0.2,0-0.4,0C157.5,10.6,96.6,69.7,96.2,161.7
				l-0.2-0.1v115.7c0,1.1,0.6,2.1,1.5,2.7l58.1,33.5c0.5,0.3,1,0.4,1.5,0.4c1.6,0,3.1-1.3,3.1-3.1l-0.4-111.4l0.1,0.1
				c0-91.7,23.9-160.2,56.5-189.7C218.6,7.8,217.2,4.4,214.4,4.4L214.4,4.4z"/>
		</g>
		<polygon display="none" fill="#5EA5D2" points="96,279.1 160.2,316.1 159.8,199.2 96,161.6 		"/>
		<path display="none" fill="#5EA5D2" d="M223.7,3.9c-59.2,0-127.6,60.9-127.6,158.8l63.8,36.7C159.8,101.1,187.4,29.3,223.7,3.9z"
			/>
		<path fill="#254164" d="M224,162.7c0-41.8-0.1-128.7-0.2-152.6c0-2.6-3-4-5-2.4C185,36.1,160,105.5,159.9,199.2l0,0v0.2
			c0,0,0,0,0,0h0.1l0.4,111.4c0,2.4,2.6,3.8,4.6,2.6l57.3-33.3c0.9-0.5,1.5-1.6,1.5-2.7V162.8L224,162.7z"/>
		<polygon display="none" fill="#254164" points="160.4,316.1 160.1,199.2 224,161.6 224,279.3 		"/>
		<g display="none">
			<path display="inline" fill="#254164" d="M223.7,3.9c-36.3,25.5-63.9,97.2-63.9,195.6l64-36.7C223.9,114,223.7,3.9,223.7,3.9z"/>
		</g>
		<g>
			<defs>
				<path id="SVGID_1_" d="M216.5,9.7c2.2-2,0.6-5.7-2.4-5.3C157.5,10.6,96.6,69.7,96.2,161.7l-0.2-0.1v115.7c0,1.1,0.6,2.1,1.5,2.7
					l58.1,33.5c2.1,1.2,4.6-0.3,4.6-2.7l-0.4-111.4l0.1,0.1C159.9,107.8,183.9,39.3,216.5,9.7z"/>
			</defs>
			<clipPath id="SVGID_2_">
				<use xlink:href="#SVGID_1_"  overflow="visible"/>
			</clipPath>
			<g clip-path="url(#SVGID_2_)">
				<line fill="none" stroke="#4A82A4" stroke-width="0.5" stroke-miterlimit="10" x1="95.9" y1="272.5" x2="160.2" y2="309.8"/>
				<line fill="none" stroke="#4A82A4" stroke-width="0.5" stroke-miterlimit="10" x1="95.9" y1="266.3" x2="160.2" y2="303.6"/>
				<line fill="none" stroke="#4A82A4" stroke-width="0.5" stroke-miterlimit="10" x1="95.9" y1="260.2" x2="160.2" y2="297.5"/>
				<line fill="none" stroke="#4A82A4" stroke-width="0.5" stroke-miterlimit="10" x1="95.9" y1="254.1" x2="160.2" y2="291.3"/>
				<line fill="none" stroke="#4A82A4" stroke-width="0.5" stroke-miterlimit="10" x1="95.9" y1="247.9" x2="160.2" y2="285.2"/>
				<line fill="none" stroke="#4A82A4" stroke-width="0.5" stroke-miterlimit="10" x1="95.9" y1="241.8" x2="160.2" y2="279"/>
				<line fill="none" stroke="#4A82A4" stroke-width="0.5" stroke-miterlimit="10" x1="95.9" y1="235.6" x2="160.2" y2="272.9"/>
				<line fill="none" stroke="#4A82A4" stroke-width="0.5" stroke-miterlimit="10" x1="95.9" y1="229.5" x2="160.2" y2="266.8"/>
				<line fill="none" stroke="#4A82A4" stroke-width="0.5" stroke-miterlimit="10" x1="95.9" y1="223.3" x2="160.2" y2="260.6"/>
				<line fill="none" stroke="#4A82A4" stroke-width="0.5" stroke-miterlimit="10" x1="95.9" y1="217.2" x2="160.2" y2="254.5"/>
				<line fill="none" stroke="#4A82A4" stroke-width="0.5" stroke-miterlimit="10" x1="95.9" y1="211.1" x2="160.2" y2="248.3"/>
				<line fill="none" stroke="#4A82A4" stroke-width="0.5" stroke-miterlimit="10" x1="95.9" y1="204.9" x2="160.2" y2="242.2"/>
				<line fill="none" stroke="#4A82A4" stroke-width="0.5" stroke-miterlimit="10" x1="95.9" y1="198.8" x2="160.2" y2="236"/>
				<line fill="none" stroke="#4A82A4" stroke-width="0.5" stroke-miterlimit="10" x1="95.9" y1="192.6" x2="160.2" y2="229.9"/>
				<line fill="none" stroke="#4A82A4" stroke-width="0.5" stroke-miterlimit="10" x1="95.9" y1="186.5" x2="160.2" y2="223.8"/>
				<line fill="none" stroke="#4A82A4" stroke-width="0.5" stroke-miterlimit="10" x1="95.9" y1="180.3" x2="160.2" y2="217.6"/>
				<line fill="none" stroke="#4A82A4" stroke-width="0.5" stroke-miterlimit="10" x1="95.9" y1="174.2" x2="160.2" y2="211.5"/>
				<line fill="none" stroke="#4A82A4" stroke-width="0.5" stroke-miterlimit="10" x1="95.9" y1="168" x2="160.2" y2="205.3"/>
				<line fill="none" stroke="#4A82A4" stroke-width="0.5" stroke-miterlimit="10" x1="95.9" y1="161.9" x2="160.2" y2="199.2"/>
				<line fill="none" stroke="#4A82A4" stroke-width="0.5" stroke-miterlimit="10" x1="95.9" y1="155.8" x2="160.2" y2="193"/>
				<line fill="none" stroke="#4A82A4" stroke-width="0.5" stroke-miterlimit="10" x1="95.9" y1="149.6" x2="160.2" y2="186.9"/>
				<line fill="none" stroke="#4A82A4" stroke-width="0.5" stroke-miterlimit="10" x1="95.9" y1="143.5" x2="160.2" y2="180.7"/>
				<line fill="none" stroke="#4A82A4" stroke-width="0.5" stroke-miterlimit="10" x1="95.9" y1="137.3" x2="160.2" y2="174.6"/>
				<line fill="none" stroke="#4A82A4" stroke-width="0.5" stroke-miterlimit="10" x1="95.9" y1="131.2" x2="160.7" y2="168.5"/>
				<line fill="none" stroke="#4A82A4" stroke-width="0.5" stroke-miterlimit="10" x1="95.9" y1="125" x2="161.2" y2="162.8"/>
				<line fill="none" stroke="#4A82A4" stroke-width="0.5" stroke-miterlimit="10" x1="95.9" y1="118.9" x2="161.6" y2="157"/>
				<line fill="none" stroke="#4A82A4" stroke-width="0.5" stroke-miterlimit="10" x1="95.9" y1="112.7" x2="163.9" y2="152.1"/>
				<line fill="none" stroke="#4A82A4" stroke-width="0.5" stroke-miterlimit="10" x1="95.9" y1="106.6" x2="166.2" y2="147.5"/>
				<line fill="none" stroke="#4A82A4" stroke-width="0.5" stroke-miterlimit="10" x1="95.9" y1="100.5" x2="169.5" y2="143.2"/>
				<line fill="none" stroke="#4A82A4" stroke-width="0.5" stroke-miterlimit="10" x1="95.9" y1="94.3" x2="168.8" y2="136.6"/>
				<line fill="none" stroke="#4A82A4" stroke-width="0.5" stroke-miterlimit="10" x1="95.9" y1="88.2" x2="168.8" y2="130.5"/>
				<line fill="none" stroke="#4A82A4" stroke-width="0.5" stroke-miterlimit="10" x1="95.9" y1="82" x2="168.8" y2="124.3"/>
				<line fill="none" stroke="#4A82A4" stroke-width="0.5" stroke-miterlimit="10" x1="95.9" y1="75.9" x2="168.8" y2="118.2"/>
				<line fill="none" stroke="#4A82A4" stroke-width="0.5" stroke-miterlimit="10" x1="95.9" y1="69.7" x2="168.8" y2="112"/>
				<line fill="none" stroke="#4A82A4" stroke-width="0.5" stroke-miterlimit="10" x1="95.9" y1="63.6" x2="177.3" y2="110.9"/>
				<line fill="none" stroke="#4A82A4" stroke-width="0.5" stroke-miterlimit="10" x1="95.9" y1="57.5" x2="177.3" y2="104.8"/>
				<line fill="none" stroke="#4A82A4" stroke-width="0.5" stroke-miterlimit="10" x1="95.9" y1="51.3" x2="177.3" y2="98.7"/>
				<line fill="none" stroke="#4A82A4" stroke-width="0.5" stroke-miterlimit="10" x1="95.9" y1="45.2" x2="177.3" y2="92.5"/>
				<line fill="none" stroke="#4A82A4" stroke-width="0.5" stroke-miterlimit="10" x1="95.9" y1="39" x2="177.3" y2="86.4"/>
				<line fill="none" stroke="#4A82A4" stroke-width="0.5" stroke-miterlimit="10" x1="95.9" y1="32.9" x2="177.3" y2="80.2"/>
				<line fill="none" stroke="#4A82A4" stroke-width="0.5" stroke-miterlimit="10" x1="95.9" y1="26.7" x2="185.9" y2="79.1"/>
				<line fill="none" stroke="#4A82A4" stroke-width="0.5" stroke-miterlimit="10" x1="95.9" y1="20.6" x2="185.9" y2="73"/>
				<line fill="none" stroke="#4A82A4" stroke-width="0.5" stroke-miterlimit="10" x1="95.9" y1="14.4" x2="185.9" y2="66.8"/>
				<line fill="none" stroke="#4A82A4" stroke-width="0.5" stroke-miterlimit="10" x1="95.9" y1="8.3" x2="185.9" y2="60.7"/>
				<line fill="none" stroke="#4A82A4" stroke-width="0.5" stroke-miterlimit="10" x1="95.9" y1="2.2" x2="185.9" y2="54.5"/>
				<line fill="none" stroke="#4A82A4" stroke-width="0.5" stroke-miterlimit="10" x1="95.9" y1="-4" x2="194.5" y2="53.4"/>
				<line fill="none" stroke="#4A82A4" stroke-width="0.5" stroke-miterlimit="10" x1="95.9" y1="-10.1" x2="194.5" y2="47.3"/>
				<line fill="none" stroke="#4A82A4" stroke-width="0.5" stroke-miterlimit="10" x1="95.9" y1="-16.3" x2="194.5" y2="41.1"/>
				<line fill="none" stroke="#4A82A4" stroke-width="0.5" stroke-miterlimit="10" x1="95.9" y1="-22.4" x2="203" y2="40"/>
			</g>
		</g>
	</g>
</g>
</svg>
