<?xml version="1.0" encoding="utf-8"?>
<!-- Generator: Adobe Illustrator 18.0.0, SVG Export Plug-In . SVG Version: 6.00 Build 0)  -->
<!DOCTYPE svg PUBLIC "-//W3C//DTD SVG 1.1//EN" "http://www.w3.org/Graphics/SVG/1.1/DTD/svg11.dtd">
<svg version="1.1" id="Layer_1" xmlns="http://www.w3.org/2000/svg" xmlns:xlink="http://www.w3.org/1999/xlink" x="0px" y="0px"
	 viewBox="0 0 200 200" enable-background="new 0 0 200 200" xml:space="preserve">
<g>
	<path fill="#254164" d="M200,0v200H0V0H200z"/>
	<g>
		<path fill="#FFFFF8" d="M103,161.7c0,5.1-0.9,8.5-7.5,8.5c-5.3,0-7.2-3.4-9.4-7.1l-0.1-0.3l-13.3,7.4l0.2,0.4
			c3.1,6,9.6,13.2,23.6,13.2c15.1,0,23.5-7.9,23.5-21.8V113h-17V161.7z"/>
		<path fill="#FFFFF8" d="M162,140.9l-3.9-1.5c-6.9-2.7-9.3-4.4-9.3-8.2c0-3.3,2.9-5.6,7-5.6c4.4,0,7.1,1.6,9.7,5.9l0.2,0.4
			l12.9-7.5l-0.2-0.4c-5-8-11.9-11.5-22.5-11.5c-13.7,0-23.2,7.9-23.2,19.1c0,12.7,9.1,17.9,19,21.7l3.9,1.5
			c6.9,2.7,11.1,4.4,11.1,9c0,3.9-4.1,6.6-10.1,6.6c-8.3,0-12.4-4.5-15-8.4l-0.2-0.3l-13.4,7.1l0.2,0.4c3.1,5.5,10.8,14.7,28.7,14.7
			c15.9,0,26.2-7.9,26.2-20.2C183,151.4,175.3,146.1,162,140.9z"/>
	</g>
</g>
</svg>
