<?xml version="1.0" encoding="utf-8"?>
<!-- Generator: Adobe Illustrator 18.0.0, SVG Export Plug-In . SVG Version: 6.00 Build 0)  -->
<!DOCTYPE svg PUBLIC "-//W3C//DTD SVG 1.1//EN" "http://www.w3.org/Graphics/SVG/1.1/DTD/svg11.dtd">
<svg version="1.1" id="Layer_1" xmlns="http://www.w3.org/2000/svg" xmlns:xlink="http://www.w3.org/1999/xlink" x="0px" y="0px"
	 viewBox="0 0 240 240" enable-background="new 0 0 240 240" xml:space="preserve">
<g>
	<g>
		<path fill="#FFFFFF" d="M119.9,7.5c0.7,0,1.3,0.2,1.9,0.5l93.7,53.6c1.2,0.7,1.9,1.9,1.9,3.3v108.9c0,1.3-0.7,2.6-1.9,3.2
			l-94.2,54.5c-0.6,0.3-1.2,0.5-1.9,0.5c-0.7,0-1.3-0.2-1.9-0.5l-93.3-53.9c-1.2-0.7-1.9-1.9-1.9-3.2V65.8c0-1.3,0.7-2.6,1.9-3.2
			L118,8C118.5,7.6,119.2,7.5,119.9,7.5 M119.9,5.5c-1,0-2,0.3-2.9,0.8L23.2,60.8c-1.8,1-2.9,2.9-2.9,5v108.6c0,2.1,1.1,4,2.9,5
			l93.3,53.9c0.9,0.5,1.9,0.8,2.9,0.8c1,0,2-0.3,2.9-0.8l94.2-54.5c1.8-1,2.9-2.9,2.9-5V64.8c0-2.1-1.1-4-2.9-5L122.7,6.2
			C121.8,5.7,120.8,5.5,119.9,5.5L119.9,5.5z"/>
	</g>
</g>
</svg>
