<?xml version="1.0" encoding="utf-8"?>
<!-- Generator: Adobe Illustrator 18.0.0, SVG Export Plug-In . SVG Version: 6.00 Build 0)  -->
<!DOCTYPE svg PUBLIC "-//W3C//DTD SVG 1.1//EN" "http://www.w3.org/Graphics/SVG/1.1/DTD/svg11.dtd">
<svg version="1.1" id="Layer_1" xmlns="http://www.w3.org/2000/svg" xmlns:xlink="http://www.w3.org/1999/xlink" x="0px" y="0px"
	 viewBox="425 35 1070 1210" enable-background="new 425 35 1070 1210" xml:space="preserve">
<g>
	<g>
		<path fill="#FFFFFF" d="M960.3,35c-5.3,0-10.6,1.6-15.3,4.2L448.4,327.7c-9.5,5.3-15.3,15.3-15.3,26.5V929
			c0,11.1,5.8,21.2,15.3,26.5l493.8,285.3c4.8,2.6,10.1,4.2,15.3,4.2c5.3,0,10.6-1.6,15.3-4.2l498.6-288.5
			c9.5-5.3,15.3-15.3,15.3-26.5V348.9c0-11.1-5.8-21.2-15.3-26.5L975.1,38.7C970.3,36.1,965,35,960.3,35L960.3,35z"/>
	</g>
</g>
</svg>
