<?xml version="1.0" encoding="utf-8"?>
<!-- Generator: Adobe Illustrator 18.0.0, SVG Export Plug-In . SVG Version: 6.00 Build 0)  -->
<!DOCTYPE svg PUBLIC "-//W3C//DTD SVG 1.1//EN" "http://www.w3.org/Graphics/SVG/1.1/DTD/svg11.dtd">
<svg version="1.1" id="Layer_1" xmlns="http://www.w3.org/2000/svg" xmlns:xlink="http://www.w3.org/1999/xlink" x="0px" y="0px"
	 viewBox="425 35 1070 1210" enable-background="new 425 35 1070 1210" xml:space="preserve">
<g>
	<g>
		<path fill="#E0E0D9" d="M960.3,45c3.6,0,7.1,0.9,9.9,2.4l496.4,283.7l0.1,0l0.1,0c6.4,3.6,10.2,10.2,10.2,17.7v576.9
			c0,7.5-3.8,14.2-10.2,17.7l-0.1,0l-0.1,0L968,1232.1c-3.5,1.9-7.1,2.9-10.4,2.9c-3.3,0-6.9-1-10.4-2.9L453.4,946.8l-0.1,0l-0.1,0
			c-6.4-3.6-10.2-10.2-10.2-17.7V354.2c0-7.5,3.8-14.2,10.2-17.7l0.1,0l0.1,0L949.9,47.9C953.3,46,956.9,45,960.3,45 M960.3,35
			c-5.3,0-10.6,1.6-15.3,4.2L448.4,327.7c-9.5,5.3-15.4,15.3-15.4,26.5V929c0,11.1,5.8,21.2,15.4,26.5l493.8,285.3
			c4.8,2.6,10.1,4.2,15.3,4.2s10.6-1.6,15.3-4.2l498.6-288.5c9.5-5.3,15.3-15.4,15.3-26.5V348.9c0-11.1-5.8-21.2-15.3-26.5
			L975.1,38.7C970.3,36.1,965,35,960.3,35L960.3,35z"/>
	</g>
</g>
</svg>
