<?xml version="1.0" encoding="utf-8"?>
<!-- Generator: Adobe Illustrator 18.0.0, SVG Export Plug-In . SVG Version: 6.00 Build 0)  -->
<!DOCTYPE svg PUBLIC "-//W3C//DTD SVG 1.1//EN" "http://www.w3.org/Graphics/SVG/1.1/DTD/svg11.dtd">
<svg version="1.1" id="Layer_1" xmlns="http://www.w3.org/2000/svg" xmlns:xlink="http://www.w3.org/1999/xlink" x="0px" y="0px"
	 viewBox="0 0 320 320" enable-background="new 0 0 320 320" xml:space="preserve">
<g>
	<g>
		<path fill="#3F2E12" d="M145.9,225.2h23.8l0,58.5h-0.6c-5.8-20.2-12.6-39.2-23.2-53.5L145.9,225.2z"/>
	</g>
	<g>
		<polyline fill="#3F2E12" points="145.9,230.2 144.9,168.9 168.7,168.9 169.8,283.7 		"/>
	</g>
	<g>
		<path fill="#594018" d="M145.9,230.2c10.6,14.3,17.4,33.3,23.2,53.5H146L145.9,230.2z"/>
	</g>
	<g>
		<path fill="#3F2E12" d="M169.8,283.7c0,0.5-0.1,0.9-0.2,1.4c-0.5-1.9-1.1-3.7-1.6-5.6C169.2,280.7,169.8,282.1,169.8,283.7z"/>
	</g>
	<g>
		<path fill="#594018" d="M158,275.7c4.2,0,7.9,1.5,10,3.7c0.6,1.9,1.1,3.7,1.6,5.6c-1,3.7-5.8,6.6-11.7,6.6
			c-6.6,0-11.9-3.6-11.9-7.9C146.1,279.3,151.4,275.7,158,275.7z"/>
	</g>
	<g>
		<path fill="#4C3715" d="M160.7,277.1c0,3.7,0.2,6.6,0.4,6.6c0.2,0,0.3-3,0.3-6.6c0-3.7-0.2-6.7-0.4-6.6
			C160.8,270.5,160.7,273.4,160.7,277.1z"/>
	</g>
	<g>
		<path fill="#4C3715" d="M151.8,256.5c0,6.1,0.3,11,0.6,11c0.3,0,0.5-4.9,0.4-11c-0.1-6.1-0.3-11-0.6-11
			C152,245.5,151.8,250.4,151.8,256.5z"/>
	</g>
	<g>
		<path fill="#2D1F09" d="M164.3,249.1c0,3.7,0.2,6.6,0.4,6.6c0.2,0,0.3-3,0.3-6.6c0-3.7-0.2-6.6-0.4-6.6
			C164.4,242.4,164.2,245.4,164.3,249.1z"/>
	</g>
	<g>
		<g>
			<path fill="#859946" d="M157.1,154.1c0.2,1.1,0.6,1.9,1,1.8c0.4-0.1,0.6-1,0.4-2c-0.2-1.1-0.6-1.9-1-1.8
				C157.1,152.1,156.9,153,157.1,154.1z"/>
		</g>
		<g>
			<path fill="#859946" d="M109.4,187.4c0,27.3,22.1,49.5,49.5,49.5c27.3,0,49.5-22.1,49.5-49.5c0-27.3-22.1-49.5-49.5-49.5
				C131.5,138,109.4,160.1,109.4,187.4z"/>
		</g>
		<g>
			<path fill="#88A337" d="M110.4,190.6c0,24,19.5,43.5,43.5,43.5c24,0,43.5-19.5,43.5-43.5c0-24-19.5-43.5-43.5-43.5
				C129.9,147.2,110.4,166.6,110.4,190.6z"/>
		</g>
		<g>
			<path fill="#859946" d="M153,209.9c-0.1,1.1,0.2,2,0.6,2c0.4,0,0.8-0.8,0.8-1.9c0.1-1.1-0.2-2-0.6-2
				C153.5,208,153.1,208.8,153,209.9z"/>
		</g>
		<g>
			<path fill="#859946" d="M154.7,179.4c0.1,1.1,0.5,1.9,0.9,1.9c0.4,0,0.6-0.9,0.5-2c-0.1-1.1-0.5-1.9-0.9-1.9
				C154.9,177.4,154.6,178.3,154.7,179.4z"/>
		</g>
		<g>
			<path fill="#859946" d="M159,155.9c0.1,1.1,0.5,1.9,0.9,1.9c0.4,0,0.6-0.9,0.5-2c-0.1-1.1-0.5-1.9-0.9-1.9
				C159.1,154,158.9,154.9,159,155.9z"/>
		</g>
		<g>
			<path fill="#859946" d="M169,194.1c0.2,1.1,0.6,1.9,1,1.8c0.4-0.1,0.5-1,0.4-2c-0.2-1.1-0.6-1.9-1-1.8
				C169,192.1,168.8,193,169,194.1z"/>
		</g>
		<g>
			<path fill="#859946" d="M174.6,168.3c0.2,1.1,0.6,1.9,1,1.8c0.4-0.1,0.5-1,0.4-2c-0.2-1.1-0.6-1.9-1-1.8
				C174.6,166.4,174.4,167.3,174.6,168.3z"/>
		</g>
		<g>
			<path fill="#859946" d="M169.8,221.3c-0.4,1-0.4,1.9-0.1,2.1c0.4,0.2,1-0.5,1.4-1.5c0.4-1,0.4-1.9,0.1-2.1
				C170.8,219.7,170.2,220.4,169.8,221.3z"/>
		</g>
		<g>
			<path fill="#859946" d="M186.9,199.2c-0.2,1-0.1,2,0.3,2.1c0.4,0.1,0.9-0.7,1.1-1.7c0.2-1,0.1-2-0.3-2
				C187.6,197.4,187.1,198.2,186.9,199.2z"/>
		</g>
		<g>
			<path fill="#859946" d="M138.6,195.5c-0.1,1.1,0.2,2,0.6,2c0.4,0,0.8-0.8,0.9-1.9c0.1-1.1-0.2-2-0.5-2
				C139.1,193.6,138.7,194.4,138.6,195.5z"/>
		</g>
		<g>
			<path fill="#859946" d="M141.9,164.3c-0.1,1.1,0.2,2,0.6,2c0.4,0,0.8-0.8,0.9-1.9c0.1-1.1-0.2-2-0.6-2
				C142.3,162.4,142,163.2,141.9,164.3z"/>
		</g>
		<g>
			<path fill="#859946" d="M120.5,181.2c-0.1,1.1,0.2,2,0.6,2c0.4,0,0.8-0.8,0.8-1.9c0.1-1.1-0.2-2-0.6-2
				C121,179.3,120.6,180.1,120.5,181.2z"/>
		</g>
		<g>
			<path fill="#859946" d="M135.5,221.6c-0.1,1.1,0.2,2,0.6,2c0.4,0,0.8-0.8,0.9-1.9c0.1-1.1-0.2-2-0.6-2
				C136,219.7,135.6,220.5,135.5,221.6z"/>
		</g>
		<g>
			<path fill="#5C6C2B" d="M200.7,177.7c0.5,1,1.1,1.6,1.4,1.5c0.4-0.1,0.3-1.1-0.1-2c-0.4-1-1.1-1.6-1.4-1.5
				C200.2,175.8,200.3,176.7,200.7,177.7z"/>
		</g>
		<g>
			<path fill="#5C6C2B" d="M190.9,219.5c-0.3,1-0.2,2,0.1,2.1c0.4,0.1,0.9-0.6,1.2-1.7c0.3-1,0.2-2-0.1-2.1
				C191.7,217.7,191.2,218.5,190.9,219.5z"/>
		</g>
		<g>
			<path fill="#5C6C2B" d="M203.3,191.9c-0.3,1-0.2,2,0.1,2.1c0.4,0.1,0.9-0.6,1.2-1.7c0.3-1,0.2-2-0.1-2.1
				C204.2,190.1,203.7,190.8,203.3,191.9z"/>
		</g>
		<g>
			<path fill="#5C6C2B" d="M181.3,151.6c1,0.5,1.9,0.5,2.1,0.2c0.2-0.3-0.5-1-1.4-1.5c-1-0.5-1.9-0.6-2.1-0.2
				C179.7,150.5,180.4,151.2,181.3,151.6z"/>
		</g>
		<g>
			<path fill="#5C6C2B" d="M139.6,147.8c0.9-0.5,1.6-1.2,1.4-1.5c-0.2-0.3-1.1-0.2-2,0.3c-0.9,0.5-1.6,1.2-1.4,1.5
				C137.8,148.4,138.7,148.3,139.6,147.8z"/>
		</g>
	</g>
	<g>
		<g>
			<path fill="#859946" d="M102.7,107.4c0.2,1.1,0.6,1.9,1,1.8c0.4-0.1,0.6-1,0.4-2c-0.2-1.1-0.6-1.9-1-1.8
				C102.7,105.4,102.5,106.3,102.7,107.4z"/>
		</g>
		<g>
			<path fill="#859946" d="M55,140.7c0,27.3,22.1,49.5,49.5,49.5c27.3,0,49.5-22.1,49.5-49.5c0-27.3-22.1-49.5-49.5-49.5
				C77.1,91.3,55,113.4,55,140.7z"/>
		</g>
		<g>
			<path fill="#88A337" d="M56,144c0,24,19.5,43.5,43.5,43.5c24,0,43.5-19.5,43.5-43.5c0-24-19.5-43.5-43.5-43.5
				C75.5,100.5,56,119.9,56,144z"/>
		</g>
		<g>
			<path fill="#859946" d="M98.6,163.2c-0.1,1.1,0.2,2,0.5,2c0.4,0,0.8-0.8,0.9-1.9c0.1-1.1-0.2-2-0.5-2
				C99.1,161.3,98.7,162.1,98.6,163.2z"/>
		</g>
		<g>
			<path fill="#859946" d="M100.4,132.7c0.1,1.1,0.5,1.9,0.9,1.9c0.4,0,0.6-0.9,0.5-2c-0.1-1.1-0.5-1.9-0.9-1.9
				C100.5,130.7,100.2,131.6,100.4,132.7z"/>
		</g>
		<g>
			<path fill="#859946" d="M104.6,109.2c0.1,1.1,0.5,1.9,0.9,1.9c0.4,0,0.6-0.9,0.5-2c-0.1-1.1-0.5-1.9-0.9-1.9
				C104.7,107.3,104.5,108.2,104.6,109.2z"/>
		</g>
		<g>
			<path fill="#859946" d="M114.6,147.4c0.2,1.1,0.6,1.9,1,1.8c0.4-0.1,0.6-1,0.4-2c-0.2-1.1-0.6-1.9-1-1.8
				C114.6,145.4,114.4,146.3,114.6,147.4z"/>
		</g>
		<g>
			<path fill="#859946" d="M120.2,121.6c0.2,1.1,0.6,1.9,1,1.8c0.4-0.1,0.5-1,0.4-2c-0.2-1.1-0.6-1.9-1-1.8
				C120.2,119.7,120,120.6,120.2,121.6z"/>
		</g>
		<g>
			<path fill="#859946" d="M115.4,174.7c-0.4,1-0.4,1.9-0.1,2.1c0.4,0.1,1-0.5,1.4-1.5c0.4-1,0.4-1.9,0.1-2.1
				C116.5,173,115.8,173.7,115.4,174.7z"/>
		</g>
		<g>
			<path fill="#859946" d="M132.5,152.5c-0.2,1-0.1,2,0.2,2.1c0.4,0.1,0.9-0.7,1.1-1.7c0.2-1,0.1-2-0.3-2
				C133.2,150.7,132.7,151.5,132.5,152.5z"/>
		</g>
		<g>
			<path fill="#859946" d="M84.2,148.8c-0.1,1.1,0.2,2,0.5,2c0.4,0,0.8-0.8,0.9-1.9c0.1-1.1-0.2-2-0.6-2
				C84.7,146.9,84.3,147.7,84.2,148.8z"/>
		</g>
		<g>
			<path fill="#859946" d="M87.5,117.6c-0.1,1.1,0.2,2,0.6,2c0.4,0,0.8-0.8,0.8-1.9c0.1-1.1-0.2-2-0.5-2
				C87.9,115.7,87.6,116.5,87.5,117.6z"/>
		</g>
		<g>
			<path fill="#859946" d="M66.1,134.5c-0.1,1.1,0.2,2,0.5,2c0.4,0,0.8-0.8,0.9-1.9c0.1-1.1-0.2-2-0.6-2
				C66.6,132.6,66.2,133.4,66.1,134.5z"/>
		</g>
		<g>
			<path fill="#859946" d="M81.1,174.9c-0.1,1.1,0.2,2,0.5,2c0.4,0,0.8-0.8,0.8-1.9c0.1-1.1-0.2-2-0.6-2
				C81.6,173,81.2,173.8,81.1,174.9z"/>
		</g>
		<g>
			<path fill="#5C6C2B" d="M146.4,131c0.4,1,1.1,1.6,1.4,1.5c0.3-0.2,0.3-1.1-0.2-2c-0.4-1-1.1-1.6-1.4-1.5
				C145.9,129.1,145.9,130,146.4,131z"/>
		</g>
		<g>
			<path fill="#5C6C2B" d="M136.5,172.8c-0.3,1-0.2,2,0.1,2.1c0.4,0.1,0.9-0.6,1.2-1.7c0.3-1,0.2-2-0.1-2.1
				C137.3,171,136.8,171.8,136.5,172.8z"/>
		</g>
		<g>
			<path fill="#5C6C2B" d="M149,145.2c-0.3,1-0.2,2,0.1,2.1c0.4,0.1,0.9-0.6,1.2-1.7c0.3-1,0.2-2-0.1-2.1
				C149.8,143.4,149.3,144.1,149,145.2z"/>
		</g>
		<g>
			<path fill="#5C6C2B" d="M127,104.9c1,0.5,1.9,0.5,2.1,0.2c0.2-0.3-0.5-1-1.4-1.5c-1-0.5-1.9-0.5-2.1-0.2
				C125.3,103.8,126,104.5,127,104.9z"/>
		</g>
		<g>
			<path fill="#5C6C2B" d="M85.2,101.1c0.9-0.5,1.6-1.2,1.4-1.5c-0.2-0.3-1.1-0.2-2,0.3c-0.9,0.5-1.6,1.2-1.4,1.5
				C83.4,101.7,84.3,101.6,85.2,101.1z"/>
		</g>
	</g>
	<g>
		<g>
			<path fill="#859946" d="M213.8,107.4c0.2,1.1,0.6,1.9,1,1.8c0.4-0.1,0.6-1,0.4-2c-0.2-1.1-0.6-1.9-1-1.8
				C213.8,105.4,213.6,106.3,213.8,107.4z"/>
		</g>
		<g>
			<path fill="#859946" d="M166.1,140.7c0,27.3,22.1,49.5,49.5,49.5c27.3,0,49.5-22.1,49.5-49.5c0-27.3-22.1-49.5-49.5-49.5
				C188.2,91.3,166.1,113.4,166.1,140.7z"/>
		</g>
		<g>
			<path fill="#88A337" d="M167.1,144c0,24,19.5,43.5,43.5,43.5c24,0,43.5-19.5,43.5-43.5c0-24-19.5-43.5-43.5-43.5
				C186.6,100.5,167.1,119.9,167.1,144z"/>
		</g>
		<g>
			<path fill="#859946" d="M209.7,163.2c-0.1,1.1,0.2,2,0.6,2c0.4,0,0.8-0.8,0.9-1.9c0.1-1.1-0.2-2-0.6-2
				C210.2,161.3,209.8,162.1,209.7,163.2z"/>
		</g>
		<g>
			<path fill="#859946" d="M211.4,132.7c0.1,1.1,0.5,1.9,0.9,1.9c0.4,0,0.6-0.9,0.5-2c-0.1-1.1-0.5-1.9-0.9-1.9
				C211.6,130.7,211.3,131.6,211.4,132.7z"/>
		</g>
		<g>
			<path fill="#859946" d="M215.7,109.2c0.1,1.1,0.5,1.9,0.9,1.9c0.4,0,0.6-0.9,0.5-2c-0.1-1.1-0.5-1.9-0.9-1.9
				C215.8,107.3,215.6,108.2,215.7,109.2z"/>
		</g>
		<g>
			<path fill="#859946" d="M225.7,147.4c0.2,1.1,0.6,1.9,1,1.8c0.4-0.1,0.5-1,0.4-2c-0.2-1.1-0.6-1.9-1-1.8
				C225.7,145.4,225.5,146.3,225.7,147.4z"/>
		</g>
		<g>
			<path fill="#859946" d="M231.3,121.6c0.2,1.1,0.6,1.9,1,1.8c0.4-0.1,0.6-1,0.4-2c-0.2-1.1-0.6-1.9-1-1.8
				C231.3,119.7,231.1,120.6,231.3,121.6z"/>
		</g>
		<g>
			<path fill="#859946" d="M226.5,174.7c-0.4,1-0.4,1.9-0.1,2.1c0.4,0.1,1-0.5,1.4-1.5c0.4-1,0.4-1.9,0.1-2.1
				C227.5,173,226.9,173.7,226.5,174.7z"/>
		</g>
		<g>
			<path fill="#859946" d="M243.5,152.5c-0.2,1-0.1,2,0.2,2.1c0.4,0.1,0.9-0.7,1.1-1.7c0.2-1,0.1-2-0.3-2
				C244.3,150.7,243.8,151.5,243.5,152.5z"/>
		</g>
		<g>
			<path fill="#859946" d="M195.3,148.8c-0.1,1.1,0.2,2,0.6,2c0.4,0,0.8-0.8,0.8-1.9c0.1-1.1-0.2-2-0.5-2
				C195.8,146.9,195.4,147.7,195.3,148.8z"/>
		</g>
		<g>
			<path fill="#859946" d="M198.6,117.6c-0.1,1.1,0.2,2,0.5,2c0.4,0,0.8-0.8,0.9-1.9c0.1-1.1-0.2-2-0.6-2
				C199,115.7,198.6,116.5,198.6,117.6z"/>
		</g>
		<g>
			<path fill="#859946" d="M177.2,134.5c-0.1,1.1,0.2,2,0.6,2c0.4,0,0.8-0.8,0.8-1.9c0.1-1.1-0.2-2-0.5-2
				C177.7,132.6,177.3,133.4,177.2,134.5z"/>
		</g>
		<g>
			<path fill="#859946" d="M192.2,174.9c-0.1,1.1,0.2,2,0.6,2c0.4,0,0.8-0.8,0.9-1.9c0.1-1.1-0.2-2-0.6-2
				C192.7,173,192.3,173.8,192.2,174.9z"/>
		</g>
		<g>
			<path fill="#5C6C2B" d="M257.4,131c0.4,1,1.1,1.6,1.4,1.5c0.4-0.2,0.3-1.1-0.1-2c-0.4-1-1.1-1.6-1.4-1.5
				C256.9,129.1,257,130,257.4,131z"/>
		</g>
		<g>
			<path fill="#5C6C2B" d="M247.6,172.8c-0.3,1-0.2,2,0.1,2.1c0.4,0.1,0.9-0.6,1.2-1.7c0.3-1,0.2-2-0.1-2.1
				C248.4,171,247.9,171.8,247.6,172.8z"/>
		</g>
		<g>
			<path fill="#5C6C2B" d="M260,145.2c-0.3,1-0.2,2,0.1,2.1c0.4,0.1,0.9-0.6,1.2-1.7c0.3-1,0.2-2-0.1-2.1
				C260.9,143.4,260.3,144.1,260,145.2z"/>
		</g>
		<g>
			<path fill="#5C6C2B" d="M238,104.9c1,0.5,1.9,0.5,2.1,0.2c0.2-0.3-0.5-1-1.4-1.5c-1-0.5-1.9-0.5-2.1-0.2
				C236.4,103.8,237.1,104.5,238,104.9z"/>
		</g>
		<g>
			<path fill="#5C6C2B" d="M196.3,101.1c0.9-0.5,1.6-1.2,1.4-1.5c-0.2-0.3-1.1-0.2-2,0.3c-0.9,0.5-1.6,1.2-1.4,1.5
				C194.5,101.7,195.4,101.6,196.3,101.1z"/>
		</g>
	</g>
	<g>
		<g>
			<path fill="#859946" d="M191.5,52.9c0.2,1.1,0.6,1.9,1,1.8c0.4-0.1,0.6-1,0.4-2c-0.2-1.1-0.6-1.9-1-1.8
				C191.5,50.9,191.3,51.8,191.5,52.9z"/>
		</g>
		<g>
			<path fill="#859946" d="M143.8,86.3c0,27.3,22.1,49.5,49.5,49.5c27.3,0,49.5-22.1,49.5-49.5c0-27.3-22.1-49.5-49.5-49.5
				C165.9,36.8,143.8,59,143.8,86.3z"/>
		</g>
		<g>
			<path fill="#88A337" d="M144.8,89.5c0,24,19.5,43.5,43.5,43.5c24,0,43.5-19.5,43.5-43.5c0-24-19.5-43.5-43.5-43.5
				C164.3,46,144.8,65.5,144.8,89.5z"/>
		</g>
		<g>
			<path fill="#859946" d="M187.4,108.7c-0.1,1.1,0.2,2,0.6,2c0.4,0,0.8-0.8,0.8-1.9c0.1-1.1-0.2-2-0.6-2
				C187.9,106.8,187.5,107.7,187.4,108.7z"/>
		</g>
		<g>
			<path fill="#859946" d="M189.1,78.2c0.1,1.1,0.5,1.9,0.9,1.9c0.4,0,0.6-0.9,0.5-2c-0.1-1.1-0.5-1.9-0.9-1.9
				C189.3,76.3,189,77.2,189.1,78.2z"/>
		</g>
		<g>
			<path fill="#859946" d="M193.4,54.8c0.1,1.1,0.5,1.9,0.9,1.9c0.4,0,0.6-0.9,0.5-2c-0.1-1.1-0.5-1.9-0.9-1.9
				C193.5,52.8,193.3,53.7,193.4,54.8z"/>
		</g>
		<g>
			<path fill="#859946" d="M203.4,92.9c0.2,1.1,0.6,1.9,1,1.8c0.4-0.1,0.5-1,0.4-2c-0.2-1.1-0.6-1.9-1-1.8
				C203.4,91,203.2,91.9,203.4,92.9z"/>
		</g>
		<g>
			<path fill="#859946" d="M209,67.2c0.2,1.1,0.6,1.9,1,1.8c0.4-0.1,0.5-1,0.4-2c-0.2-1.1-0.6-1.9-1-1.8
				C209,65.2,208.8,66.1,209,67.2z"/>
		</g>
		<g>
			<path fill="#859946" d="M204.2,120.2c-0.4,1-0.4,1.9-0.1,2.1c0.4,0.1,1-0.5,1.4-1.5c0.4-1,0.4-1.9,0.1-2.1
				C205.2,118.5,204.6,119.2,204.2,120.2z"/>
		</g>
		<g>
			<path fill="#859946" d="M221.3,98.1c-0.2,1-0.1,2,0.2,2.1c0.4,0.1,0.9-0.7,1.1-1.7c0.2-1,0.1-2-0.3-2
				C222,96.3,221.5,97,221.3,98.1z"/>
		</g>
		<g>
			<path fill="#859946" d="M173,94.3c-0.1,1.1,0.2,2,0.6,2c0.4,0,0.8-0.8,0.9-1.9c0.1-1.1-0.2-2-0.6-2
				C173.5,92.4,173.1,93.3,173,94.3z"/>
		</g>
		<g>
			<path fill="#859946" d="M176.3,63.1c-0.1,1.1,0.2,2,0.6,2c0.4,0,0.8-0.8,0.9-1.9c0.1-1.1-0.2-2-0.5-2
				C176.7,61.2,176.4,62.1,176.3,63.1z"/>
		</g>
		<g>
			<path fill="#859946" d="M154.9,80.1c-0.1,1.1,0.2,2,0.6,2c0.4,0,0.8-0.8,0.8-1.9c0.1-1.1-0.2-2-0.5-2
				C155.4,78.1,155,79,154.9,80.1z"/>
		</g>
		<g>
			<path fill="#859946" d="M169.9,120.4c-0.1,1.1,0.2,2,0.6,2c0.4,0,0.8-0.8,0.9-1.9c0.1-1.1-0.2-2-0.6-2
				C170.4,118.5,170,119.3,169.9,120.4z"/>
		</g>
		<g>
			<path fill="#5C6C2B" d="M235.1,76.5c0.5,1,1.1,1.6,1.4,1.5c0.4-0.2,0.3-1.1-0.1-2c-0.4-1-1.1-1.6-1.4-1.5
				C234.6,74.6,234.7,75.6,235.1,76.5z"/>
		</g>
		<g>
			<path fill="#5C6C2B" d="M225.3,118.3c-0.3,1-0.2,2,0.1,2.1c0.4,0.1,0.9-0.6,1.2-1.7c0.3-1,0.2-2-0.1-2.1
				C226.1,116.6,225.6,117.3,225.3,118.3z"/>
		</g>
		<g>
			<path fill="#5C6C2B" d="M237.8,90.7c-0.3,1-0.2,2,0.1,2.1c0.4,0.1,0.9-0.6,1.2-1.7c0.3-1,0.2-2-0.1-2.1
				C238.6,88.9,238.1,89.7,237.8,90.7z"/>
		</g>
		<g>
			<path fill="#5C6C2B" d="M215.7,50.5c1,0.5,1.9,0.5,2,0.2c0.2-0.3-0.5-1-1.4-1.5c-1-0.5-1.9-0.5-2-0.2
				C214.1,49.3,214.8,50,215.7,50.5z"/>
		</g>
		<g>
			<path fill="#5C6C2B" d="M174,46.6c0.9-0.5,1.6-1.2,1.4-1.5c-0.2-0.3-1.1-0.2-2,0.3c-0.9,0.5-1.6,1.2-1.4,1.5
				C172.2,47.3,173.1,47.1,174,46.6z"/>
		</g>
	</g>
	<g>
		<g>
			<path fill="#859946" d="M127.5,44.4c0.2,1.1,0.6,1.9,1,1.8c0.4-0.1,0.6-1,0.4-2c-0.2-1.1-0.6-1.9-1-1.8
				C127.5,42.5,127.3,43.4,127.5,44.4z"/>
		</g>
		<g>
			<path fill="#859946" d="M79.8,77.8c0,27.3,22.1,49.5,49.5,49.5c27.3,0,49.5-22.1,49.5-49.5c0-27.3-22.1-49.5-49.5-49.5
				C102,28.4,79.8,50.5,79.8,77.8z"/>
		</g>
		<g>
			<path fill="#88A337" d="M80.9,81c0,24,19.5,43.5,43.5,43.5c24,0,43.5-19.5,43.5-43.5c0-24-19.5-43.5-43.5-43.5
				C100.3,37.5,80.9,57,80.9,81z"/>
		</g>
		<g>
			<path fill="#859946" d="M123.5,100.3c-0.1,1.1,0.2,2,0.5,2c0.4,0,0.8-0.8,0.9-1.9c0.1-1.1-0.2-2-0.6-2
				C123.9,98.4,123.5,99.2,123.5,100.3z"/>
		</g>
		<g>
			<path fill="#859946" d="M125.2,69.8c0.1,1.1,0.5,1.9,0.9,1.9c0.4,0,0.6-0.9,0.5-2c-0.1-1.1-0.5-1.9-0.9-1.9
				C125.3,67.8,125.1,68.7,125.2,69.8z"/>
		</g>
		<g>
			<path fill="#859946" d="M129.4,46.3c0.1,1.1,0.5,1.9,0.9,1.9c0.4,0,0.6-0.9,0.5-2c-0.1-1.1-0.5-1.9-0.9-1.9
				C129.5,44.4,129.3,45.3,129.4,46.3z"/>
		</g>
		<g>
			<path fill="#859946" d="M139.4,84.5c0.2,1.1,0.6,1.9,1,1.8c0.4-0.1,0.6-1,0.4-2c-0.2-1.1-0.6-1.9-1-1.8
				C139.4,82.5,139.3,83.4,139.4,84.5z"/>
		</g>
		<g>
			<path fill="#859946" d="M145,58.7c0.2,1.1,0.6,1.9,1,1.8c0.4-0.1,0.5-1,0.4-2c-0.2-1.1-0.6-1.9-1-1.8
				C145,56.8,144.8,57.7,145,58.7z"/>
		</g>
		<g>
			<path fill="#859946" d="M140.3,111.7c-0.4,1-0.4,1.9-0.1,2.1c0.4,0.1,1-0.5,1.4-1.5c0.4-1,0.4-1.9,0.1-2.1
				C141.3,110.1,140.7,110.8,140.3,111.7z"/>
		</g>
		<g>
			<path fill="#859946" d="M157.3,89.6c-0.2,1-0.1,2,0.3,2.1c0.4,0.1,0.9-0.7,1.1-1.7c0.2-1,0.1-2-0.2-2
				C158,87.8,157.5,88.6,157.3,89.6z"/>
		</g>
		<g>
			<path fill="#859946" d="M109,85.9c-0.1,1.1,0.2,2,0.6,2c0.4,0,0.8-0.8,0.9-1.9c0.1-1.1-0.2-2-0.5-2C109.5,84,109.1,84.8,109,85.9
				z"/>
		</g>
		<g>
			<path fill="#859946" d="M112.3,54.7c-0.1,1.1,0.2,2,0.5,2c0.4,0,0.8-0.8,0.9-1.9c0.1-1.1-0.2-2-0.6-2
				C112.8,52.8,112.4,53.6,112.3,54.7z"/>
		</g>
		<g>
			<path fill="#859946" d="M90.9,71.6c-0.1,1.1,0.2,2,0.6,2c0.4,0,0.8-0.8,0.9-1.9c0.1-1.1-0.2-2-0.5-2C91.4,69.7,91,70.5,90.9,71.6
				z"/>
		</g>
		<g>
			<path fill="#859946" d="M105.9,112c-0.1,1.1,0.2,2,0.6,2c0.4,0,0.8-0.8,0.9-1.9c0.1-1.1-0.2-2-0.5-2
				C106.4,110,106,110.9,105.9,112z"/>
		</g>
		<g>
			<path fill="#5C6C2B" d="M171.2,68.1c0.4,1,1.1,1.6,1.4,1.5c0.4-0.1,0.3-1.1-0.2-2c-0.4-1-1.1-1.6-1.4-1.5
				C170.7,66.2,170.7,67.1,171.2,68.1z"/>
		</g>
		<g>
			<path fill="#5C6C2B" d="M161.3,109.9c-0.3,1-0.2,2,0.1,2.1c0.4,0.1,0.9-0.6,1.2-1.7c0.3-1,0.2-2-0.1-2.1
				C162.1,108.1,161.6,108.9,161.3,109.9z"/>
		</g>
		<g>
			<path fill="#5C6C2B" d="M173.8,82.3c-0.3,1-0.2,2,0.1,2.1c0.4,0.1,0.9-0.6,1.2-1.7c0.3-1,0.2-1.9-0.1-2.1
				C174.6,80.5,174.1,81.2,173.8,82.3z"/>
		</g>
		<g>
			<path fill="#5C6C2B" d="M151.8,42c1,0.5,1.9,0.5,2.1,0.2c0.2-0.3-0.5-1-1.4-1.5c-1-0.5-1.9-0.5-2.1-0.2
				C150.2,40.9,150.8,41.5,151.8,42z"/>
		</g>
		<g>
			<path fill="#5C6C2B" d="M110.1,38.2c0.9-0.5,1.6-1.2,1.4-1.5c-0.2-0.3-1.1-0.2-2,0.3c-1,0.5-1.6,1.2-1.4,1.5
				C108.2,38.8,109.1,38.7,110.1,38.2z"/>
		</g>
	</g>
	<g>
		<g>
			<path fill="#859946" d="M143.8,114.1c0.2,1.1,0.6,1.9,1,1.8c0.4-0.1,0.6-1,0.4-2c-0.2-1.1-0.6-1.9-1-1.8
				C143.8,112.1,143.6,113,143.8,114.1z"/>
		</g>
		<g>
			<path fill="#859946" d="M96.1,147.4c0,27.3,22.1,49.5,49.5,49.5c27.3,0,49.5-22.1,49.5-49.5c0-27.3-22.1-49.5-49.5-49.5
				C118.2,98,96.1,120.1,96.1,147.4z"/>
		</g>
		<g>
			<path fill="#88A337" d="M97.1,150.7c0,24,19.5,43.5,43.5,43.5s43.5-19.5,43.5-43.5c0-24-19.5-43.5-43.5-43.5
				S97.1,126.6,97.1,150.7z"/>
		</g>
		<g>
			<path fill="#859946" d="M139.7,169.9c-0.1,1.1,0.2,2,0.6,2c0.4,0,0.8-0.8,0.8-1.9c0.1-1.1-0.2-2-0.5-2
				C140.2,168,139.8,168.8,139.7,169.9z"/>
		</g>
		<g>
			<path fill="#859946" d="M141.5,139.4c0.1,1.1,0.5,1.9,0.9,1.9c0.4,0,0.6-0.9,0.5-2c-0.1-1.1-0.5-1.9-0.9-1.9
				C141.6,137.4,141.3,138.3,141.5,139.4z"/>
		</g>
		<g>
			<path fill="#859946" d="M145.7,115.9c0.1,1.1,0.5,1.9,0.9,1.9c0.4,0,0.6-0.9,0.5-2c-0.1-1.1-0.5-1.9-0.9-1.9
				C145.8,114,145.6,114.9,145.7,115.9z"/>
		</g>
		<g>
			<path fill="#859946" d="M155.7,154.1c0.2,1.1,0.6,1.9,1,1.8c0.4-0.1,0.5-1,0.4-2c-0.2-1.1-0.6-1.9-1-1.8
				C155.7,152.1,155.5,153,155.7,154.1z"/>
		</g>
		<g>
			<path fill="#859946" d="M161.3,128.3c0.2,1.1,0.6,1.9,1,1.8c0.4-0.1,0.5-1,0.4-2c-0.2-1.1-0.6-1.9-1-1.8
				C161.3,126.4,161.1,127.3,161.3,128.3z"/>
		</g>
		<g>
			<path fill="#859946" d="M156.5,181.4c-0.4,1-0.4,1.9-0.1,2.1c0.4,0.2,1-0.5,1.4-1.5c0.4-1,0.4-1.9,0.1-2.1
				C157.6,179.7,156.9,180.4,156.5,181.4z"/>
		</g>
		<g>
			<path fill="#859946" d="M173.6,159.2c-0.2,1-0.1,2,0.3,2.1c0.4,0.1,0.9-0.7,1.1-1.7c0.2-1,0.1-2-0.3-2
				C174.3,157.4,173.8,158.2,173.6,159.2z"/>
		</g>
		<g>
			<path fill="#859946" d="M125.3,155.5c-0.1,1.1,0.2,2,0.6,2c0.4,0,0.8-0.8,0.8-1.9c0.1-1.1-0.2-2-0.6-2
				C125.8,153.6,125.4,154.4,125.3,155.5z"/>
		</g>
		<g>
			<path fill="#859946" d="M128.6,124.3c-0.1,1.1,0.2,2,0.5,2c0.4,0,0.8-0.8,0.9-1.9c0.1-1.1-0.2-2-0.5-2
				C129,122.4,128.7,123.2,128.6,124.3z"/>
		</g>
		<g>
			<path fill="#859946" d="M107.2,141.2c-0.1,1.1,0.2,2,0.6,2c0.4,0,0.8-0.8,0.8-1.9c0.1-1.1-0.2-2-0.5-2
				C107.7,139.3,107.3,140.1,107.2,141.2z"/>
		</g>
		<g>
			<path fill="#859946" d="M122.2,181.6c-0.1,1.1,0.2,2,0.6,2c0.4,0,0.8-0.8,0.9-1.9c0.1-1.1-0.2-2-0.6-2
				C122.7,179.7,122.3,180.5,122.2,181.6z"/>
		</g>
		<g>
			<path fill="#5C6C2B" d="M187.5,137.7c0.4,1,1.1,1.6,1.4,1.5c0.3-0.1,0.3-1.1-0.2-2c-0.4-1-1.1-1.6-1.4-1.5
				C187,135.8,187,136.7,187.5,137.7z"/>
		</g>
		<g>
			<path fill="#5C6C2B" d="M177.6,179.5c-0.3,1-0.2,2,0.1,2.1c0.4,0.1,0.9-0.6,1.2-1.7c0.3-1,0.2-2-0.1-2.1
				C178.4,177.7,177.9,178.5,177.6,179.5z"/>
		</g>
		<g>
			<path fill="#5C6C2B" d="M190.1,151.9c-0.3,1-0.2,2,0.1,2.1c0.4,0.1,0.9-0.6,1.2-1.7c0.3-1,0.2-1.9-0.1-2.1
				C190.9,150.1,190.4,150.8,190.1,151.9z"/>
		</g>
		<g>
			<path fill="#5C6C2B" d="M168.1,111.6c1,0.5,1.9,0.5,2.1,0.2c0.2-0.3-0.5-1-1.4-1.5c-1-0.5-1.9-0.5-2.1-0.2
				C166.4,110.5,167.1,111.2,168.1,111.6z"/>
		</g>
		<g>
			<path fill="#5C6C2B" d="M126.3,107.8c0.9-0.5,1.6-1.2,1.4-1.5c-0.2-0.3-1.1-0.2-2,0.3c-1,0.5-1.6,1.2-1.4,1.5
				C124.5,108.4,125.4,108.3,126.3,107.8z"/>
		</g>
	</g>
</g>
</svg>
