<?xml version="1.0" encoding="utf-8"?>
<!DOCTYPE svg PUBLIC "-//W3C//DTD SVG 1.1//EN" "http://www.w3.org/Graphics/SVG/1.1/DTD/svg11.dtd">
<svg version="1.1" id="polymasksvg" xmlns="http://www.w3.org/2000/svg" xmlns:xlink="http://www.w3.org/1999/xlink" x="0px" y="0px"
	 viewBox="-87 -87 230 230" enable-background="new -87 -87 230 230" xml:space="preserve" width="0" height="0">
  <mask id="polymask" maskContentUnits="userSpaceOnUse">
		<path fill="#FFFFFF" d="M27.8-87c0.8,0,1.3,0,2.1,0.4l96.2,54.8l0,0l0,0c1.3,0.8,2.1,2.1,2.1,3.3V83.2c0,1.3-0.8,2.9-2.1,3.3l0,0
			l0,0l-96.6,56c-0.8,0.4-1.3,0.4-2.1,0.4s-1.3,0-2.1-0.4l-95.3-55.2l0,0l0,0c-1.3-0.8-2.1-2.1-2.1-3.3V-27.2c0-1.3,0.8-2.9,2.1-3.3
			l0,0l0,0l96.2-56C26.5-87,27.4-87,27.8-87"/>
  </mask>
</svg>
