<?xml version="1.0" encoding="UTF-8" standalone="no"?>
<!DOCTYPE svg PUBLIC "-//W3C//DTD SVG 1.1//EN" "http://www.w3.org/Graphics/SVG/1.1/DTD/svg11.dtd">
<svg version="1.1" xmlns="http://www.w3.org/2000/svg" xmlns:xlink="http://www.w3.org/1999/xlink" width="230" height="230">
  <clipPath id="hexagonPath">
      <path
        d="m 221.32409,170.90839 c -7.91658,14.57046 -29.08344,27.02493 -43.95981,35.43831 -16.83597,9.52198 -40.84562,22.69635 -60.44388,23.61175 C 99.606032,230.76574 77.606575,219.67057 62.458805,211.70569 45.314639,202.68971 21.233686,189.63034 10.596207,174.05018 1.1984258,160.28701 0.3681274,136.73737 0.09442794,120.35911 -0.21607144,101.82115 -0.28507131,75.587412 8.675711,59.091851 16.592295,44.521386 37.759154,32.066916 52.635524,23.653536 69.471491,14.131558 93.481144,0.95718944 113.07941,0.04179161 130.39377,-0.76550647 152.39323,10.329667 167.541,18.294548 c 17.14416,9.015979 41.22512,22.075348 51.8626,37.655511 9.39778,13.763167 10.22808,37.312811 10.50177,53.691071 0.3105,18.53796 0.3795,44.7717 -8.58128,61.26726 z"
      />
  </clipPath>
  <path
    id="hexagonMask"
    d="m 221.32409,170.90839 c -7.91658,14.57046 -29.08344,27.02493 -43.95981,35.43831 -16.83597,9.52198 -40.84562,22.69635 -60.44388,23.61175 C 99.606032,230.76574 77.606575,219.67057 62.458805,211.70569 45.314639,202.68971 21.233686,189.63034 10.596207,174.05018 1.1984258,160.28701 0.3681274,136.73737 0.09442794,120.35911 -0.21607144,101.82115 -0.28507131,75.587412 8.675711,59.091851 16.592295,44.521386 37.759154,32.066916 52.635524,23.653536 69.471491,14.131558 93.481144,0.95718944 113.07941,0.04179161 130.39377,-0.76550647 152.39323,10.329667 167.541,18.294548 c 17.14416,9.015979 41.22512,22.075348 51.8626,37.655511 9.39778,13.763167 10.22808,37.312811 10.50177,53.691071 0.3105,18.53796 0.3795,44.7717 -8.58128,61.26726 z"
    />
</svg>
