<?xml version="1.0" encoding="utf-8"?>
<!-- Generator: Adobe Illustrator 18.0.0, SVG Export Plug-In . SVG Version: 6.00 Build 0)  -->
<!DOCTYPE svg PUBLIC "-//W3C//DTD SVG 1.1//EN" "http://www.w3.org/Graphics/SVG/1.1/DTD/svg11.dtd">
<svg version="1.1" id="Layer_1" xmlns="http://www.w3.org/2000/svg" xmlns:xlink="http://www.w3.org/1999/xlink" x="0px" y="0px"
	 viewBox="0 0 400 300" enable-background="new 0 0 400 300" xml:space="preserve">
<g>
	<g>
		<path fill="#5A9AC2" stroke="#243F60" stroke-width="2" stroke-miterlimit="10" d="M193.5,25.3l-7.9-4.5
			c-1.6-0.9-12.7,4.8-13.6,6.4l-0.8,1.4l-4.6-2.7c-1.6-0.9-12.7,4.8-13.6,6.4l-0.8,1.4l-4.6-2.7c-1.6-0.9-12.7,4.8-13.6,6.4
			l-0.8,1.3l-4.6-2.7c-1.6-0.9-12.7,4.8-13.6,6.4l-0.8,1.3l-4.6-2.7c-1.6-0.9-12.7,4.8-13.6,6.4L95.1,49l-4.6-2.7
			c-1.6-0.9-12.7,4.8-13.6,6.4l-4.5,7.9c-0.5,0.8-0.6,1.7-0.3,2.6l50.4,187.9c0.2,0.9,0.8,1.6,1.6,2.1l7.9,4.5
			c1.6,0.9,12.7-4.8,13.6-6.4l0.8-1.4l4.6,2.7c1.6,0.9,12.7-4.8,13.6-6.4l0.8-1.3l4.6,2.7c1.6,0.9,12.7-4.8,13.6-6.4l0.8-1.3
			l4.6,2.7c1.6,0.9,12.7-4.8,13.6-6.4l0.8-1.3l4.6,2.7c1.6,0.9,12.7-4.8,13.6-6.4l0.8-1.4l4.7,2.7c1.6,0.9,12.7-4.8,13.6-6.4
			l4.6-7.9c0.5-0.8,0.6-1.7,0.3-2.6L195.1,27.4C194.9,26.5,194.3,25.8,193.5,25.3z"/>
		<path fill="#DEC659" stroke="#243F60" stroke-width="2" stroke-miterlimit="10" d="M171.6,27.2l-3.6,6.1c-1,1.6-3.1,2.2-4.7,1.3
			l-6.1-3.5c-1.6-0.9-3.7-0.4-4.7,1.3l-3.5,6.1c-0.9,1.6-3.1,2.2-4.7,1.3l-6.1-3.5c-1.6-0.9-3.7-0.4-4.7,1.3l-3.5,6.1
			c-0.9,1.6-3.1,2.2-4.7,1.3l-6.1-3.5c-1.6-0.9-3.7-0.4-4.7,1.3l-3.5,6.1c-0.9,1.6-3.1,2.2-4.7,1.3l-6.1-3.5
			c-1.6-0.9-3.7-0.4-4.7,1.3l-3.5,6.1c-0.9,1.6-3.1,2.2-4.7,1.3l-6.1-3.5c-1.6-0.9-3.7-0.4-4.7,1.3l-4.5,7.9
			c-0.5,0.8-0.6,1.7-0.3,2.6l50.4,187.9c0.2,0.9,0.8,1.6,1.6,2.1l7.9,4.5c1.6,0.9,3.7,0.4,4.7-1.3l3.5-6.1c0.9-1.6,3.1-2.2,4.7-1.3
			l6.1,3.5c1.6,0.9,3.7,0.4,4.7-1.3l3.5-6.1c0.9-1.6,3.1-2.2,4.7-1.3l6.1,3.5c1.6,0.9,3.7,0.4,4.7-1.3l3.5-6.1
			c0.9-1.6,3.1-2.2,4.7-1.3l6.1,3.5c1.6,0.9,3.7,0.4,4.7-1.3l3.5-6.1c0.9-1.6,3.1-2.2,4.7-1.3l6.1,3.5c1.6,0.9,3.7,0.4,4.7-1.3
			l3.5-6.1c0.9-1.6,3-2.2,4.7-1.3l6.2,3.5c1.6,0.9,3.7,0.4,4.7-1.3l4.6-7.9c0.5-0.8,0.6-1.7,0.3-2.6L185.8,32.6
			c-0.2-0.9-0.8-1.6-1.6-2.1l-7.9-4.5C174.6,25,172.5,25.6,171.6,27.2z"/>
		<path fill="#5A9AC2" stroke="#243F60" stroke-width="2" stroke-miterlimit="10" d="M181.1,52.1c-0.5-1.8-2.4-2.9-4.2-2.4l-89.7,24
			c-1.8,0.5-2.9,2.4-2.4,4.2l41.3,154.1c0.5,1.8,2.4,2.9,4.2,2.4l89.7-24c1.8-0.5,2.9-2.4,2.4-4.2L181.1,52.1z M213,200.2
			c0.5,1.8-0.6,3.7-2.4,4.2l-74.4,19.9c-1.8,0.5-3.7-0.6-4.2-2.4L95.1,84.4c-0.5-1.8,0.6-3.7,2.4-4.2l74.4-19.9
			c1.8-0.5,3.7,0.6,4.2,2.4L213,200.2z"/>
	</g>
	<path opacity="0.15" d="M245.5,215.3L195.1,27.4c-0.2-0.9-0.8-1.6-1.6-2.1l-7.9-4.5c-1.6-0.9-12.7,4.8-13.6,6.4l-0.8,1.4l-4.6-2.7
		c-1.6-0.9-12.7,4.8-13.6,6.4l-0.8,1.4l-4.6-2.7c-0.6-0.4-2.7,0.3-5.1,1.3l-41.7,138.3l21.6,80.5c0.2,0.9,0.8,1.6,1.6,2.1l7.9,4.5
		c1.6,0.9,12.7-4.8,13.6-6.4l0.8-1.4l4.6,2.7c1.6,0.9,12.7-4.8,13.6-6.4l0.8-1.3l4.6,2.7c1.6,0.9,12.7-4.8,13.6-6.4l0.8-1.3l4.6,2.7
		c1.6,0.9,12.7-4.8,13.6-6.4l0.8-1.3l4.6,2.7c1.6,0.9,12.7-4.8,13.6-6.4l0.8-1.4l4.7,2.7c1.6,0.9,12.7-4.8,13.6-6.4l4.6-7.9
		C245.6,217.2,245.7,216.2,245.5,215.3z"/>
	<g>
		<path fill="#5A9AC2" stroke="#243F60" stroke-width="2" stroke-miterlimit="10" d="M323.1,52.2l-5.5-9.5c-1.1-2-16.1-2.6-18.1-1.5
			l-1.7,1l-3.2-5.6c-1.1-2-16.1-2.7-18.1-1.5L275,36l-3.2-5.6c-1.1-2-16.1-2.7-18.1-1.5l-1.6,0.9l-3.2-5.6c-1.1-2-16.1-2.7-18.1-1.5
			l-1.6,0.9l-3.2-5.6c-1.1-2-16.1-2.7-18.1-1.5l-1.6,0.9l-3.2-5.6c-1.1-2-16.1-2.7-18.1-1.5l-9.5,5.5c-1,0.5-1.6,1.5-1.9,2.5
			L113,244.6c-0.3,1.1-0.1,2.2,0.4,3.1l5.5,9.5c1.1,2,16.1,2.7,18.1,1.5l1.6-0.9l3.2,5.6c1.1,2,16.1,2.7,18.1,1.5l1.6-0.9l3.2,5.6
			c1.1,2,16.1,2.7,18.1,1.5l1.6-0.9l3.2,5.6c1.1,2,16.1,2.7,18.1,1.5l1.6-0.9l3.2,5.6c1.1,2,16.1,2.7,18.1,1.5l1.6-0.9l3.3,5.6
			c1.1,2,16.1,2.6,18.1,1.5l9.5-5.5c1-0.5,1.7-1.5,1.9-2.5l60.6-226.1C323.8,54.3,323.7,53.2,323.1,52.2z"/>
		<path fill="#DEC659" stroke="#243F60" stroke-width="2" stroke-miterlimit="10" d="M299.1,41.2l-7.4,4.3c-2,1.1-4.5,0.5-5.6-1.5
			l-4.3-7.4c-1.1-2-3.7-2.7-5.7-1.5l-7.4,4.2c-2,1.1-4.5,0.5-5.7-1.5l-4.2-7.4c-1.1-2-3.7-2.7-5.7-1.5l-7.3,4.2
			c-2,1.1-4.5,0.5-5.7-1.5l-4.2-7.3c-1.1-2-3.7-2.7-5.7-1.5l-7.3,4.2c-2,1.1-4.5,0.5-5.7-1.5l-4.2-7.3c-1.1-2-3.7-2.7-5.7-1.5
			l-7.3,4.2c-2,1.1-4.5,0.5-5.7-1.5l-4.3-7.4c-1.1-2-3.7-2.7-5.6-1.5l-9.5,5.5c-1,0.5-1.6,1.5-1.9,2.5l-60.6,226.1
			c-0.3,1.1-0.1,2.2,0.4,3.1l5.5,9.5c1.1,2,3.7,2.7,5.7,1.5l7.4-4.2c2-1.1,4.5-0.5,5.7,1.5l4.2,7.3c1.1,2,3.7,2.7,5.7,1.5l7.3-4.2
			c2-1.1,4.5-0.5,5.7,1.5l4.2,7.3c1.1,2,3.7,2.7,5.7,1.5l7.3-4.2c2-1.1,4.5-0.5,5.7,1.5l4.2,7.3c1.1,2,3.7,2.7,5.7,1.5l7.3-4.2
			c2-1.1,4.5-0.5,5.7,1.5l4.2,7.3c1.1,2,3.7,2.7,5.7,1.5l7.4-4.2c2-1.1,4.5-0.5,5.6,1.5l4.3,7.4c1.1,2,3.7,2.6,5.6,1.5l9.5-5.5
			c1-0.5,1.7-1.5,1.9-2.5l60.6-226.1c0.3-1.1,0.1-2.2-0.4-3.1l-5.5-9.5C303.6,40.8,301.1,40.1,299.1,41.2z"/>
		<path fill="#5A9AC2" stroke="#243F60" stroke-width="2" stroke-miterlimit="10" d="M294.1,72.7c0.6-2.2-0.7-4.5-2.9-5.1
			L183.2,38.7c-2.2-0.6-4.5,0.7-5.1,2.9l-49.7,185.5c-0.6,2.2,0.7,4.5,2.9,5.1l107.9,28.9c2.2,0.6,4.5-0.7,5.1-2.9L294.1,72.7z
			 M238.1,246.2c-0.6,2.2-2.9,3.5-5.1,2.9l-89.5-24c-2.2-0.6-3.5-2.9-2.9-5.1L185,54.6c0.6-2.2,2.9-3.5,5.1-2.9l89.5,24
			c2.2,0.6,3.5,2.9,2.9,5.1L238.1,246.2z"/>
	</g>
	<polygon opacity="0.15" points="116.6,233 276.4,233 289.6,183 103.8,183 116.8,231.7 	"/>
	<g id="sign">
		<path fill="#CCCCCC" d="M389.3,169.7l-30.8-5c-2.8,0-5-2.3-5-5v0c0-2.8-2.3-5-5-5c0,0-92.1-5-151.4-5s-151.4,5-151.4,5
			c-2.8,0-5,2.2-5,5v0c0,2.8-2.3,5-5,5l-30.8,5c-4,0-6.4,4.5-4.2,7.8l13,14.4c1.1,1.7,1.1,3.9,0,5.6L0.5,222
			c-2.2,3.3,0.2,7.8,4.2,7.8l33.7-5c1.3,0,2.6-0.5,3.6-1.5l7.1-7.1c0.9-0.9,2.2-1.5,3.6-1.5c0,0,88.1-5,144.3-5s144.3,5,144.3,5
			c1.3,0,2.6,0.5,3.6,1.5l8.6,8.6v0h0l35.8,5c4,0,6.4-4.5,4.2-7.8l-13-24.5c-1.1-1.7-1.1-3.9,0-5.6l13-14.4
			C395.7,174.2,393.3,169.7,389.3,169.7z"/>
		<g>
			<path fill="#FFFFFF" d="M346.4,214.7c0,0-73.9-5-149.4-5s-149.4,5-149.4,5c-3.9,0-7.1-3.2-7.1-7.1v-45.9c0-3.9,3.2-7.1,7.1-7.1
				c0,0,87.1-5,149.4-5s149.4,5,149.4,5c3.9,0,7.1,3.2,7.1,7.1v45.9C353.5,211.5,350.3,214.7,346.4,214.7z"/>
			<g>
				<path fill="#F2F2F2" d="M2.7,180.8l10,10c1.6,2.4,1.6,5.5,0,7.9l-10,20c-3.2,4.7,0.2,11.1,5.9,11.1l24.8-5
					c3.9,0,7.1-3.2,7.1-7.1v-45.9c0-3.9-3.2-7.1-7.1-7.1l-24.8,5C2.9,169.7-0.5,176.1,2.7,180.8z"/>
				<path fill="#F2F2F2" d="M385.4,169.7l-24.8-5c-3.9,0-7.1,3.2-7.1,7.1v45.9c0,3.9,3.2,7.1,7.1,7.1l24.8,5c5.7,0,9.1-6.4,5.9-11.1
					l-10-20c-1.6-2.4-1.6-5.5,0-7.9l10-10C394.5,176.1,391.1,169.7,385.4,169.7z"/>
			</g>
		</g>
		<g>
			<path fill="#C5473D" d="M76.9,175.5c0,2.1-0.5,4-2.9,5.4c3.5,1.6,4.5,3.7,4.5,7.1c0,5.4-3.1,8.9-10.2,8.9h-9.6v-29.3h6.4
				c3.9,0,6.5,0.1,8.8,1.6C76,170.7,76.9,173,76.9,175.5z M65,179.1h2.9c1.8-0.1,2.9-1.1,2.9-3.6c0-3.1-2-3.2-4.9-3.2H65V179.1z
				 M72.4,187.9c0-3.5-2.3-4.2-5.4-4.2H65v8.3h2.6C71.3,192,72.4,190.3,72.4,187.9z"/>
			<path fill="#C5473D" d="M89,194.2c-1.4-2-2-4.4-2-8v-18.5h6.4V186c0,2.4,0.1,3.9,0.9,5c0.6,0.9,1.6,1.3,3.5,1.3
				c1.6,0,2.9-0.4,3.4-1.4c0.7-1,0.9-2.6,0.9-4.9v-18.2h6.4v18.5c0,3.6-0.6,6-2.1,8c-1.8,2.2-5,3.3-8.6,3.3
				C94,197.5,90.7,196.4,89,194.2z"/>
			<path fill="#C5473D" d="M127.3,180.2l6-12.5h6.4l-9.2,17.7V197h-6.3v-11.6l-9.2-17.7h6.4L127.3,180.2z"/>
			<path fill="#C5473D" d="M154.7,172.8v-5h21.7v5h-7.8V197h-6.3v-24.3H154.7z"/>
			<path fill="#C5473D" d="M190.3,197H184v-29.3h6.3V197z"/>
			<path fill="#C5473D" d="M218.7,196.8c-2.1,0.5-4.4,0.8-6.8,0.8c-6.7,0-12.7-3.6-12.7-15.3c0-11.6,6.8-15,13.2-15
				c2.5,0,4.3,0.3,6.6,1l-1,4.5c-1.6-0.3-3.2-0.5-4.6-0.5c-4.3,0-7.7,2.1-7.7,9.9c0,8,3.4,10.2,7.9,10.2c1.4,0,3.1-0.1,4.7-0.4
				L218.7,196.8z"/>
			<path fill="#C5473D" d="M233.8,197h-6.3v-29.3h6.3V197z M243.3,167.7h7.5l-9.1,14.1l11,15.2H245l-10.2-15L243.3,167.7z"/>
			<path fill="#C5473D" d="M278.6,191.9v5.1h-18.9v-29.3h18.5v5.1h-12.1v6.6h11.4v4.9h-11.4v7.6H278.6z"/>
			<path fill="#C5473D" d="M285.3,172.8v-5H307v5h-7.8V197h-6.3v-24.3H285.3z"/>
			<path fill="#C5473D" d="M322.6,197.6c-2.9,0-7.1-0.9-9.5-2l1.6-5.2c1.9,0.9,5.1,1.8,7.6,1.8c2.3,0,4.1-0.8,4.1-3.2
				c0-2.2-2.3-3.6-5.5-5c-3.9-1.8-7.3-3.5-7.3-9c0-4.9,4-7.9,9.5-7.9c2.5,0,5.2,0.6,8.2,1.7l-1.8,4.8c-2-0.7-4.3-1.3-6.1-1.3
				c-2.1,0-3.6,0.7-3.7,2.9c0,2,2.2,2.7,4.8,4.2c3.5,1.9,7.9,4.3,7.9,9.4C332.5,193.9,328.8,197.6,322.6,197.6z"/>
		</g>
	</g>
</g>
<path opacity="0.25" d="M383.9,204l-2.6-5.3c-1.4-2.1-1.6-4.9-0.5-7.1l3.1-3.4l7.4-7.4c0.4-0.6,0.7-1.2,0.9-1.8l1.3-1.4
	c2.2-3.3-0.2-7.8-4.2-7.8l-20.1-3.3l-8.6-1.7c-0.5,0-0.9,0-1.3,0.1l-0.8-0.1c-2.8,0-5-2.2-5-5c0-2.8-2.3-5-5-5
	c0,0-21.7-1.2-50.9-2.4l26-96.9c0.3-1.1,0.1-2.2-0.4-3.1l-5.5-9.5c-0.9-1.6-10.8-2.3-15.6-2c-0.9-0.2-1.9-0.1-2.8,0.5l-1.3,0.8
	l-3.1-5.4c-0.9-1.6-10.8-2.3-15.6-2c-0.9-0.2-1.9-0.1-2.8,0.5l-1.3,0.8l-3.1-5.4c-0.9-1.6-10.8-2.3-15.6-2c-0.9-0.2-1.9-0.1-2.8,0.5
	l-1.3,0.8l-3.1-5.4c-0.9-1.6-10.8-2.3-15.6-2c-0.9-0.2-1.9-0.1-2.8,0.5l-1.3,0.8l-3.1-5.4c-0.9-1.6-10.8-2.3-15.6-2
	c-0.9-0.2-1.9-0.1-2.8,0.5l-1.3,0.8l-3.1-5.4c-0.9-1.6-10.8-2.3-15.6-2c-0.9-0.2-1.9-0.1-2.8,0.5l-9.5,5.5c-1,0.5-1.6,1.5-1.9,2.5
	l-2.6,9.7l-4-2.3c-0.7-0.4-2.9,0.3-5.3,1.4c-0.2,0.1-0.4,0.2-0.6,0.3c-0.8,0.4-1.5,0.7-2.3,1.1c-0.4,0.2-0.7,0.4-1.1,0.6
	c-0.4,0.2-0.7,0.4-1,0.6c-0.4,0.3-0.8,0.5-1.2,0.7c-1,0.2-1.9,0.7-2.5,1.7l-0.7,1.2l-4.3-2.5c-0.1,0-0.2-0.1-0.3-0.1c0,0,0,0-0.1,0
	c-0.1,0-0.2,0-0.4,0c0,0,0,0-0.1,0c-0.1,0-0.3,0-0.4,0.1c0,0-0.1,0-0.1,0c-0.2,0-0.4,0.1-0.6,0.1c0,0-0.1,0-0.1,0
	c-0.4,0.1-0.9,0.3-1.4,0.5c0,0,0-0.2,0-0.1c-0.5,0.2-1.1,0.5-1.7,0.5c0,0-0.4,0-0.4,0v0.2c-2,1-4.6,2.4-6.3,3.5
	c-1,0.2-1.8,0.8-2.4,1.7l-0.6,1.2l-4.3-2.5c-1.3-0.7-8.1,2.5-11.6,4.8c-1,0.2-1.9,0.7-2.4,1.7l-0.7,1.2l-4.3-2.5
	c-1.3-0.7-8.1,2.5-11.6,4.8c-1,0.2-1.9,0.7-2.5,1.7l-0.7,1.2l-4.3-2.5c-1.3-0.7-8.1,2.5-11.6,4.8c-1,0.2-1.9,0.7-2.5,1.7l-4.5,7.9
	c-0.5,0.8-0.6,1.7-0.3,2.6l23.9,89.1c-28.6,1.2-49.8,2.4-49.8,2.4c-2.8,0-5,2.2-5,5v0c0,2.8-2.3,5-5,5l-0.8,0.1
	c-0.4-0.1-0.9-0.1-1.3-0.1l-8.6,1.7l-20.1,3.3c-4,0-6.4,4.5-4.2,7.8l1.3,1.4c0.2,0.6,0.5,1.2,0.9,1.8l7.4,7.4l3.1,3.4
	c1.1,2.3,1,5-0.5,7.1l-2.6,5.3l-9.6,18c-2.2,3.3,0.2,7.8,4.2,7.8l1.9-0.3c0.6,0.2,1.3,0.3,2,0.3l10.8-2.2l19-2.8
	c1.3,0,2.6-0.5,3.6-1.5l7.1-7.1c0.9-0.9,2.2-1.5,3.6-1.5c0,0,26-1.5,58.7-2.8l5,18.8l-3.7,14c-0.3,1.1-0.1,2.2,0.4,3.1l5.5,9.5
	c1.1,1.9,3.6,2.6,5.5,1.6c4.9,0.7,11.7,0.7,13-0.1l1.3-0.8l3.1,5.4c1.1,1.9,3.6,2.6,5.5,1.6c4.9,0.7,11.7,0.7,13-0.1l1.3-0.8
	l3.1,5.4c1.1,1.9,3.6,2.6,5.5,1.6c4.9,0.7,11.7,0.7,13-0.1l1.3-0.8l3.1,5.4c1.1,1.9,3.6,2.6,5.5,1.6c4.9,0.7,11.7,0.7,13-0.1
	l1.3-0.8l3.1,5.4c1.1,1.9,3.6,2.6,5.5,1.6c4.9,0.7,11.7,0.7,13-0.1l1.3-0.8l3.2,5.4c1.1,1.9,3.6,2.6,5.5,1.6
	c4.9,0.7,11.7,0.7,13-0.1l9.5-5.5c1-0.5,1.7-1.5,1.9-2.5l13-48.5h0.4l5.6-21.1c33.1,1.4,59.4,2.9,59.4,2.9c1.3,0,2.6,0.5,3.6,1.5
	l8.6,8.6v0h0l23.1,3.2l8.8,1.8c0.7,0,1.4-0.1,2-0.3l1.9,0.3c4,0,6.4-4.5,4.2-7.8L383.9,204z"/>
<g>
	<g>
		<path fill="#FFFFFF" d="M375,157.8L52.4,244.3L25,142.2l322.6-86.5L375,157.8z M61.4,228.6l297.9-79.8l-20.7-77.4L40.7,151.2
			L61.4,228.6z"/>
	</g>
	<g>
		<path fill="#FFFFFF" d="M93.1,201.6c-4.1,1.1-10.3,1.4-14.1,0.7l0.3-8c3.1,0.5,7.9,0.7,11.5-0.3c3.2-0.9,5.5-2.7,4.6-6
			c-0.8-3.2-4.6-4.1-9.6-5c-6.3-1.1-11.6-2.2-13.7-9.9c-1.8-6.9,2.7-12.6,10.4-14.7c3.5-0.9,7.6-1.2,12.2-0.7l-0.7,7.4
			c-3-0.2-6.5-0.2-9.1,0.5c-3,0.8-4.8,2.4-4.1,5.5c0.7,2.8,4.1,3,8.4,4.1c5.7,1.4,12.8,3.1,14.7,10.3
			C105.7,192.8,101.8,199.3,93.1,201.6z"/>
		<path fill="#FFFFFF" d="M138.8,166.4c2.9,10.8,1.8,22.4-11.1,25.9c-12.8,3.4-19.4-6.1-22.3-16.9c-2.9-10.9-1.7-22.5,11-25.9
			C129.3,146,135.9,155.5,138.8,166.4z M130.2,168.7c-2.1-7.8-5.3-13.7-11.9-12c-6.5,1.7-6.4,8.5-4.3,16.3
			c2.1,7.7,5.3,13.4,11.8,11.7C132.3,183,132.3,176.4,130.2,168.7z"/>
		<path fill="#FFFFFF" d="M173.5,171.5l1.9,7.2l-24.7,6.6L139.6,144l9-2.4l9.1,34.1L173.5,171.5z"/>
		<path fill="#FFFFFF" d="M180,177.5l-11-41.2l11.6-3.1c4.6-1.2,8.1-2,11.3-1.3c6.8,1.5,11,8.6,13.3,16.9c2.2,8.2,2.1,16.5-3,21.1
			c-2.5,2.2-5.9,3.4-10.5,4.6L180,177.5z M186.8,167.1l3.1-0.8c8.4-2.3,8.6-7.4,6.5-15.3s-4.9-12.2-13.3-10l-3.1,0.8L186.8,167.1z"
			/>
		<path fill="#FFFFFF" d="M254.9,135.3c2.9,10.8,1.8,22.4-11.1,25.9c-12.8,3.4-19.4-6.1-22.3-16.9c-2.9-10.9-1.7-22.5,11-25.9
			C245.4,114.9,252,124.4,254.9,135.3z M246.4,137.6c-2.1-7.8-5.3-13.7-11.9-12c-6.5,1.7-6.4,8.5-4.3,16.3
			c2.1,7.7,5.3,13.4,11.8,11.7C248.5,151.9,248.4,145.3,246.4,137.6z"/>
		<path fill="#FFFFFF" d="M268.3,149.6c-2.7-2.3-4.5-5.5-5.9-10.5l-7-26l9-2.4l6.9,25.7c0.9,3.3,1.7,5.5,3.1,6.7
			c1.1,1,2.8,1.2,5.4,0.5c2.2-0.6,3.9-1.7,4.3-3.2c0.7-1.6,0.3-4-0.6-7.3l-6.9-25.7l9-2.4l7,26c1.3,5,1.4,8.6,0.1,12
			c-1.7,3.8-5.8,6.5-10.9,8C276.6,152.4,271.6,152,268.3,149.6z"/>
		<path fill="#FFFFFF" d="M291.8,110.9l-1.9-7.1l30.6-8.2l1.9,7.1l-10.9,2.9l9.2,34.2l-8.9,2.4l-9.2-34.2L291.8,110.9z"/>
	</g>
</g>
</svg>
