<?xml version="1.0" encoding="utf-8"?>
<!-- Generator: Adobe Illustrator 18.0.0, SVG Export Plug-In . SVG Version: 6.00 Build 0)  -->
<!DOCTYPE svg PUBLIC "-//W3C//DTD SVG 1.1//EN" "http://www.w3.org/Graphics/SVG/1.1/DTD/svg11.dtd">
<svg version="1.1" id="Layer_1" xmlns="http://www.w3.org/2000/svg" xmlns:xlink="http://www.w3.org/1999/xlink" x="0px" y="0px"
	 viewBox="0 0 400 300" enable-background="new 0 0 400 300" xml:space="preserve">
<g>
	<g>
		<path fill="#5A9AC2" stroke="#243F60" stroke-width="2" stroke-miterlimit="10" d="M196.5,25.3l-7.9-4.5
			c-1.6-0.9-12.7,4.8-13.6,6.4l-0.8,1.4l-4.6-2.7c-1.6-0.9-12.7,4.8-13.6,6.4l-0.8,1.4l-4.6-2.7c-1.6-0.9-12.7,4.8-13.6,6.4
			l-0.8,1.3l-4.6-2.7c-1.6-0.9-12.7,4.8-13.6,6.4l-0.8,1.3l-4.6-2.7c-1.6-0.9-12.7,4.8-13.6,6.4L98.1,49l-4.6-2.7
			c-1.6-0.9-12.7,4.8-13.6,6.4l-4.5,7.9c-0.5,0.8-0.6,1.7-0.3,2.6l50.4,187.9c0.2,0.9,0.8,1.6,1.6,2.1l7.9,4.5
			c1.6,0.9,12.7-4.8,13.6-6.4l0.8-1.4l4.6,2.7c1.6,0.9,12.7-4.8,13.6-6.4l0.8-1.3l4.6,2.7c1.6,0.9,12.7-4.8,13.6-6.4l0.8-1.3
			l4.6,2.7c1.6,0.9,12.7-4.8,13.6-6.4l0.8-1.3l4.6,2.7c1.6,0.9,12.7-4.8,13.6-6.4l0.8-1.4l4.7,2.7c1.6,0.9,12.7-4.8,13.6-6.4
			l4.6-7.9c0.5-0.8,0.6-1.7,0.3-2.6L198.1,27.4C197.9,26.5,197.3,25.8,196.5,25.3z"/>
		<path fill="#DEC659" stroke="#243F60" stroke-width="2" stroke-miterlimit="10" d="M174.6,27.2l-3.6,6.1c-1,1.6-3.1,2.2-4.7,1.3
			l-6.1-3.5c-1.6-0.9-3.7-0.4-4.7,1.3l-3.5,6.1c-0.9,1.6-3.1,2.2-4.7,1.3l-6.1-3.5c-1.6-0.9-3.7-0.4-4.7,1.3l-3.5,6.1
			c-0.9,1.6-3.1,2.2-4.7,1.3l-6.1-3.5c-1.6-0.9-3.7-0.4-4.7,1.3l-3.5,6.1c-0.9,1.6-3.1,2.2-4.7,1.3l-6.1-3.5
			c-1.6-0.9-3.7-0.4-4.7,1.3l-3.5,6.1c-0.9,1.6-3.1,2.2-4.7,1.3l-6.1-3.5c-1.6-0.9-3.7-0.4-4.7,1.3l-4.5,7.9
			c-0.5,0.8-0.6,1.7-0.3,2.6l50.4,187.9c0.2,0.9,0.8,1.6,1.6,2.1l7.9,4.5c1.6,0.9,3.7,0.4,4.7-1.3l3.5-6.1c0.9-1.6,3.1-2.2,4.7-1.3
			l6.1,3.5c1.6,0.9,3.7,0.4,4.7-1.3l3.5-6.1c0.9-1.6,3.1-2.2,4.7-1.3l6.1,3.5c1.6,0.9,3.7,0.4,4.7-1.3l3.5-6.1
			c0.9-1.6,3.1-2.2,4.7-1.3l6.1,3.5c1.6,0.9,3.7,0.4,4.7-1.3l3.5-6.1c0.9-1.6,3.1-2.2,4.7-1.3l6.1,3.5c1.6,0.9,3.7,0.4,4.7-1.3
			l3.5-6.1c0.9-1.6,3-2.2,4.7-1.3l6.2,3.5c1.6,0.9,3.7,0.4,4.7-1.3l4.6-7.9c0.5-0.8,0.6-1.7,0.3-2.6L188.8,32.6
			c-0.2-0.9-0.8-1.6-1.6-2.1l-7.9-4.5C177.6,25,175.5,25.6,174.6,27.2z"/>
		<path fill="#5A9AC2" stroke="#243F60" stroke-width="2" stroke-miterlimit="10" d="M184.1,52.1c-0.5-1.8-2.4-2.9-4.2-2.4l-89.7,24
			c-1.8,0.5-2.9,2.4-2.4,4.2l41.3,154.1c0.5,1.8,2.4,2.9,4.2,2.4l89.7-24c1.8-0.5,2.9-2.4,2.4-4.2L184.1,52.1z M216,200.2
			c0.5,1.8-0.6,3.7-2.4,4.2l-74.4,19.9c-1.8,0.5-3.7-0.6-4.2-2.4L98.1,84.4c-0.5-1.8,0.6-3.7,2.4-4.2l74.4-19.9
			c1.8-0.5,3.7,0.6,4.2,2.4L216,200.2z"/>
	</g>
	<path opacity="0.15" d="M248.5,215.3L198.1,27.4c-0.2-0.9-0.8-1.6-1.6-2.1l-7.9-4.5c-1.6-0.9-12.7,4.8-13.6,6.4l-0.8,1.4l-4.6-2.7
		c-1.6-0.9-12.7,4.8-13.6,6.4l-0.8,1.4l-4.6-2.7c-0.6-0.4-2.7,0.3-5.1,1.3l-41.7,138.3l21.6,80.5c0.2,0.9,0.8,1.6,1.6,2.1l7.9,4.5
		c1.6,0.9,12.7-4.8,13.6-6.4l0.8-1.4l4.6,2.7c1.6,0.9,12.7-4.8,13.6-6.4l0.8-1.3l4.6,2.7c1.6,0.9,12.7-4.8,13.6-6.4l0.8-1.3l4.6,2.7
		c1.6,0.9,12.7-4.8,13.6-6.4l0.8-1.3l4.6,2.7c1.6,0.9,12.7-4.8,13.6-6.4l0.8-1.4l4.7,2.7c1.6,0.9,12.7-4.8,13.6-6.4l4.6-7.9
		C248.6,217.2,248.7,216.2,248.5,215.3z"/>
	<g>
		<path fill="#5A9AC2" stroke="#243F60" stroke-width="2" stroke-miterlimit="10" d="M326.1,52.2l-5.5-9.5c-1.1-2-16.1-2.6-18.1-1.5
			l-1.7,1l-3.2-5.6c-1.1-2-16.1-2.7-18.1-1.5L278,36l-3.2-5.6c-1.1-2-16.1-2.7-18.1-1.5l-1.6,0.9l-3.2-5.6c-1.1-2-16.1-2.7-18.1-1.5
			l-1.6,0.9l-3.2-5.6c-1.1-2-16.1-2.7-18.1-1.5l-1.6,0.9l-3.2-5.6c-1.1-2-16.1-2.7-18.1-1.5l-9.5,5.5c-1,0.5-1.6,1.5-1.9,2.5
			L116,244.6c-0.3,1.1-0.1,2.2,0.4,3.1l5.5,9.5c1.1,2,16.1,2.7,18.1,1.5l1.6-0.9l3.2,5.6c1.1,2,16.1,2.7,18.1,1.5l1.6-0.9l3.2,5.6
			c1.1,2,16.1,2.7,18.1,1.5l1.6-0.9l3.2,5.6c1.1,2,16.1,2.7,18.1,1.5l1.6-0.9l3.2,5.6c1.1,2,16.1,2.7,18.1,1.5l1.6-0.9l3.3,5.6
			c1.1,2,16.1,2.6,18.1,1.5l9.5-5.5c1-0.5,1.7-1.5,1.9-2.5l60.6-226.1C326.8,54.3,326.7,53.2,326.1,52.2z"/>
		<path fill="#DEC659" stroke="#243F60" stroke-width="2" stroke-miterlimit="10" d="M302.1,41.2l-7.4,4.3c-2,1.1-4.5,0.5-5.6-1.5
			l-4.3-7.4c-1.1-2-3.7-2.7-5.7-1.5l-7.4,4.2c-2,1.1-4.5,0.5-5.7-1.5l-4.2-7.4c-1.1-2-3.7-2.7-5.7-1.5l-7.3,4.2
			c-2,1.1-4.5,0.5-5.7-1.5l-4.2-7.3c-1.1-2-3.7-2.7-5.7-1.5l-7.3,4.2c-2,1.1-4.5,0.5-5.7-1.5l-4.2-7.3c-1.1-2-3.7-2.7-5.7-1.5
			l-7.3,4.2c-2,1.1-4.5,0.5-5.7-1.5l-4.3-7.4c-1.1-2-3.7-2.7-5.6-1.5l-9.5,5.5c-1,0.5-1.6,1.5-1.9,2.5l-60.6,226.1
			c-0.3,1.1-0.1,2.2,0.4,3.1l5.5,9.5c1.1,2,3.7,2.7,5.7,1.5l7.4-4.2c2-1.1,4.5-0.5,5.7,1.5l4.2,7.3c1.1,2,3.7,2.7,5.7,1.5l7.3-4.2
			c2-1.1,4.5-0.5,5.7,1.5l4.2,7.3c1.1,2,3.7,2.7,5.7,1.5l7.3-4.2c2-1.1,4.5-0.5,5.7,1.5l4.2,7.3c1.1,2,3.7,2.7,5.7,1.5l7.3-4.2
			c2-1.1,4.5-0.5,5.7,1.5l4.2,7.3c1.1,2,3.7,2.7,5.7,1.5l7.4-4.2c2-1.1,4.5-0.5,5.6,1.5l4.3,7.4c1.1,2,3.7,2.6,5.6,1.5l9.5-5.5
			c1-0.5,1.7-1.5,1.9-2.5l60.6-226.1c0.3-1.1,0.1-2.2-0.4-3.1l-5.5-9.5C306.6,40.8,304.1,40.1,302.1,41.2z"/>
		<path fill="#5A9AC2" stroke="#243F60" stroke-width="2" stroke-miterlimit="10" d="M297.1,72.7c0.6-2.2-0.7-4.5-2.9-5.1
			L186.2,38.7c-2.2-0.6-4.5,0.7-5.1,2.9l-49.7,185.5c-0.6,2.2,0.7,4.5,2.9,5.1l107.9,28.9c2.2,0.6,4.5-0.7,5.1-2.9L297.1,72.7z
			 M241.1,246.2c-0.6,2.2-2.9,3.5-5.1,2.9l-89.5-24c-2.2-0.6-3.5-2.9-2.9-5.1L188,54.6c0.6-2.2,2.9-3.5,5.1-2.9l89.5,24
			c2.2,0.6,3.5,2.9,2.9,5.1L241.1,246.2z"/>
	</g>
	<polygon opacity="0.15" points="119.6,233 279.4,233 292.6,183 106.8,183 119.8,231.7 	"/>
	<g id="sign">
		<path fill="#CCCCCC" d="M392.3,169.7l-30.8-5c-2.8,0-5-2.3-5-5v0c0-2.8-2.3-5-5-5c0,0-92.1-5-151.4-5s-151.4,5-151.4,5
			c-2.8,0-5,2.2-5,5v0c0,2.8-2.3,5-5,5l-30.8,5c-4,0-6.4,4.5-4.2,7.8l13,14.4c1.1,1.7,1.1,3.9,0,5.6L3.5,222
			c-2.2,3.3,0.2,7.8,4.2,7.8l33.7-5c1.3,0,2.6-0.5,3.6-1.5l7.1-7.1c0.9-0.9,2.2-1.5,3.6-1.5c0,0,88.1-5,144.3-5s144.3,5,144.3,5
			c1.3,0,2.6,0.5,3.6,1.5l8.6,8.6v0h0l35.8,5c4,0,6.4-4.5,4.2-7.8l-13-24.5c-1.1-1.7-1.1-3.9,0-5.6l13-14.4
			C398.7,174.2,396.3,169.7,392.3,169.7z"/>
		<g>
			<path fill="#FFFFFF" d="M349.4,214.7c0,0-73.9-5-149.4-5s-149.4,5-149.4,5c-3.9,0-7.1-3.2-7.1-7.1v-45.9c0-3.9,3.2-7.1,7.1-7.1
				c0,0,87.1-5,149.4-5s149.4,5,149.4,5c3.9,0,7.1,3.2,7.1,7.1v45.9C356.5,211.5,353.3,214.7,349.4,214.7z"/>
			<g>
				<path fill="#F2F2F2" d="M5.7,180.8l10,10c1.6,2.4,1.6,5.5,0,7.9l-10,20c-3.2,4.7,0.2,11.1,5.9,11.1l24.8-5
					c3.9,0,7.1-3.2,7.1-7.1v-45.9c0-3.9-3.2-7.1-7.1-7.1l-24.8,5C5.9,169.7,2.5,176.1,5.7,180.8z"/>
				<path fill="#F2F2F2" d="M388.4,169.7l-24.8-5c-3.9,0-7.1,3.2-7.1,7.1v45.9c0,3.9,3.2,7.1,7.1,7.1l24.8,5c5.7,0,9.1-6.4,5.9-11.1
					l-10-20c-1.6-2.4-1.6-5.5,0-7.9l10-10C397.5,176.1,394.1,169.7,388.4,169.7z"/>
			</g>
		</g>
		<g>
			<path fill="#C5473D" d="M79.9,175.5c0,2.1-0.5,4-2.9,5.4c3.5,1.6,4.5,3.7,4.5,7.1c0,5.4-3.1,8.9-10.2,8.9h-9.6v-29.3h6.4
				c3.9,0,6.5,0.1,8.8,1.6C79,170.7,79.9,173,79.9,175.5z M68,179.1h2.9c1.8-0.1,2.9-1.1,2.9-3.6c0-3.1-2-3.2-4.9-3.2H68V179.1z
				 M75.4,187.9c0-3.5-2.3-4.2-5.4-4.2H68v8.3h2.6C74.3,192,75.4,190.3,75.4,187.9z"/>
			<path fill="#C5473D" d="M92,194.2c-1.4-2-2-4.4-2-8v-18.5h6.4V186c0,2.4,0.1,3.9,0.9,5c0.6,0.9,1.6,1.3,3.5,1.3
				c1.6,0,2.9-0.4,3.4-1.4c0.7-1,0.9-2.6,0.9-4.9v-18.2h6.4v18.5c0,3.6-0.6,6-2.1,8c-1.8,2.2-5,3.3-8.6,3.3
				C97,197.5,93.7,196.4,92,194.2z"/>
			<path fill="#C5473D" d="M130.3,180.2l6-12.5h6.4l-9.2,17.7V197h-6.3v-11.6l-9.2-17.7h6.4L130.3,180.2z"/>
			<path fill="#C5473D" d="M157.7,172.8v-5h21.7v5h-7.8V197h-6.3v-24.3H157.7z"/>
			<path fill="#C5473D" d="M193.3,197H187v-29.3h6.3V197z"/>
			<path fill="#C5473D" d="M221.7,196.8c-2.1,0.5-4.4,0.8-6.8,0.8c-6.7,0-12.7-3.6-12.7-15.3c0-11.6,6.8-15,13.2-15
				c2.5,0,4.3,0.3,6.6,1l-1,4.5c-1.6-0.3-3.2-0.5-4.6-0.5c-4.3,0-7.7,2.1-7.7,9.9c0,8,3.4,10.2,7.9,10.2c1.4,0,3.1-0.1,4.7-0.4
				L221.7,196.8z"/>
			<path fill="#C5473D" d="M236.8,197h-6.3v-29.3h6.3V197z M246.3,167.7h7.5l-9.1,14.1l11,15.2H248l-10.2-15L246.3,167.7z"/>
			<path fill="#C5473D" d="M281.6,191.9v5.1h-18.9v-29.3h18.5v5.1h-12.1v6.6h11.4v4.9h-11.4v7.6H281.6z"/>
			<path fill="#C5473D" d="M288.3,172.8v-5H310v5h-7.8V197h-6.3v-24.3H288.3z"/>
			<path fill="#C5473D" d="M325.6,197.6c-2.9,0-7.1-0.9-9.5-2l1.6-5.2c1.9,0.9,5.1,1.8,7.6,1.8c2.3,0,4.1-0.8,4.1-3.2
				c0-2.2-2.3-3.6-5.5-5c-3.9-1.8-7.3-3.5-7.3-9c0-4.9,4-7.9,9.5-7.9c2.5,0,5.2,0.6,8.2,1.7l-1.8,4.8c-2-0.7-4.3-1.3-6.1-1.3
				c-2.1,0-3.6,0.7-3.7,2.9c0,2,2.2,2.7,4.8,4.2c3.5,1.9,7.9,4.3,7.9,9.4C335.5,193.9,331.8,197.6,325.6,197.6z"/>
		</g>
	</g>
</g>
</svg>
