<?xml version="1.0" encoding="utf-8"?>
<!-- Generator: Adobe Illustrator 18.0.0, SVG Export Plug-In . SVG Version: 6.00 Build 0)  -->
<!DOCTYPE svg PUBLIC "-//W3C//DTD SVG 1.1//EN" "http://www.w3.org/Graphics/SVG/1.1/DTD/svg11.dtd">
<svg version="1.1" id="Layer_1" xmlns="http://www.w3.org/2000/svg" xmlns:xlink="http://www.w3.org/1999/xlink" x="0px" y="0px"
	 viewBox="0 0 320 320" enable-background="new 0 0 320 320" xml:space="preserve">
<g>
	<path fill="#B99A6F" d="M53.9,250.7l101,58.1c1.9,1.1,4.2,1.1,6.1,0l101-58.1c1.9-1.1,3.1-3.1,3.1-5.3V129.2c0-2.2-1.2-4.2-3.1-5.3
		L161,65.7c-1.9-1.1-4.2-1.1-6.1,0l-101,58.1c-1.9,1.1-3.1,3.1-3.1,5.3v116.2C50.8,247.5,51.9,249.6,53.9,250.7z"/>
	<path fill="#80623E" d="M255.2,120.3l-94.8-54.7c-1.9-1.1-4.3-1.1-6.2,0l-94.8,54.7c-4.1,2.4-4.1,8.3,0,10.7l94.8,54.2
		c1.9,1.1,4.2,1.1,6.1,0l94.8-54.2C259.3,128.6,259.4,122.7,255.2,120.3z"/>
	<path fill="#B99A6F" d="M265.1,136.3v109.6c0,2.2-1.2,4.2-3.1,5.3l-94.3,54.3c-4.1,2.4-9.2-0.6-9.2-5.3l-1.1-109.6
		c0-2.2,1.2-4.3,3.1-5.4l95.4-54.3C260,128.6,265.1,131.6,265.1,136.3z"/>
	<path fill="#997B55" d="M149.3,305.4l-95.1-54.7c-1.9-1.1-3.1-3.1-3.1-5.3l-0.9-108.9c0-4.8,5.1-7.8,9.2-5.4l94.8,54.2
		c1.9,1.1,3.1,3.1,3.1,5.3l1.1,109.4C158.6,304.7,153.4,307.8,149.3,305.4z"/>
	<path fill="#202020" d="M39.7,143.8V191c0,0.9,0.5,1.7,1.2,2.1l106,61.8v-0.1l9.8-5.5c0.8-0.4,1.3-1.3,1.3-2.2v-45.6
		c0-0.9-0.5-1.7-1.2-2.1L51.9,138.8c-0.7-0.4-1.6-0.4-2.4-0.1L39.7,143.8L39.7,143.8z M79.1,196.6l-20.9-12.1
		c-0.8-0.4-1.2-1.3-1.2-2.1v-18c0-1.9,2.1-3.1,3.7-2.1l20.9,12.3c0.8,0.4,1.2,1.3,1.2,2.1v17.8C82.8,196.3,80.7,197.5,79.1,196.6z
		 M114.8,215.8v-17.4c0-1.9,2.1-3.1,3.7-2.1l20.9,12.3c0.8,0.4,1.2,1.3,1.2,2.1v17.2c0,1.9-2.1,3.1-3.7,2.1l-20.9-12.1
		C115.3,217.5,114.8,216.7,114.8,215.8z M140.3,244.6L140.3,244.6l-36.9-21.7l0,0L140.3,244.6z M81,210.5l-36-21.3l0.7,0L81,210.5
		L81,210.5z M45.5,152.8L45.5,152.8L45.5,152.8L45.5,152.8z"/>
	<path fill="#4E4E4E" d="M49.6,138.8l-5.9,3c-1.7,0.9-1.8,3.3-0.1,4.3l102.1,59.5c0.8,0.4,1.7,0.4,2.4,0l6.1-3.4
		c1.7-0.9,1.7-3.3,0-4.3L51.9,138.8C51.2,138.4,50.3,138.4,49.6,138.8z"/>
	<path fill="#4E4E4E" d="M137,243.1l-87.3-51.4c-1.7-1-1.6-3.4,0.1-4.3l5.9-3c0.7-0.4,1.6-0.4,2.4,0.1l81.4,47.1
		c0.8,0.4,1.2,1.3,1.2,2.1v7.3C140.7,242.9,138.6,244,137,243.1z"/>
	<path fill="#363636" d="M56.9,182.7V161c0-0.9-0.5-1.7-1.3-2.2l-6.2-3.3c-1.6-0.9-3.6,0.3-3.6,2.2v28.5c0,1.9,2,3.1,3.7,2.2
		l6.2-3.4C56.4,184.4,56.9,183.6,56.9,182.7z"/>
	<path fill="#363636" d="M114.8,215.9v-21.7c0-0.9-0.5-1.7-1.3-2.2l-6.2-3.3c-1.6-0.9-3.6,0.3-3.6,2.2v28.5c0,1.9,2,3.1,3.7,2.2
		l6.2-3.4C114.3,217.7,114.8,216.8,114.8,215.9z"/>
	<path fill="#202020" d="M145.6,205.6L43.4,146c-1.6-1-3.7,0.2-3.7,2.1V191c0,0.9,0.5,1.7,1.2,2.1l102.2,59.6c1.6,1,3.7-0.2,3.7-2.1
		v-42.9C146.9,206.8,146.4,206,145.6,205.6z M140.7,210.7v30.3c0,1.9-2.1,3.1-3.7,2.1l-32-18.8c-0.8-0.4-1.2-1.3-1.2-2.1v-30.3
		c0-1.9,2.1-3.1,3.7-2.1l32,18.8C140.2,209,140.7,209.8,140.7,210.7z M45.8,188.1v-30.3c0-1.9,2.1-3.1,3.7-2.1l32,18.8
		c0.8,0.4,1.2,1.3,1.2,2.1v30.3c0,1.9-2.1,3.1-3.7,2.1l-32-18.8C46.3,189.7,45.8,188.9,45.8,188.1z"/>
	<path fill="#202020" d="M148.1,218c0-0.8,0.5-1.6,1.2-2l9.4-5.4v0l13.5-7.8l47.4-27.4l0,0l9.5-5.4c1.6-0.9,3.8,0.2,3.8,2.1v7.4
		c0,0.9-0.6,1.7-1.4,2.1l-8.9,5c-0.2,0.2-0.4,0.3-0.6,0.4l-70.6,40c-1.7,1-3.8-0.3-3.7-2.3L148.1,218z"/>
	<circle fill="#99352E" cx="254.7" cy="110.8" r="35.1"/>
	<path fill="#363636" d="M150.5,252.8l6.2-3.4c0.8-0.4,1.3-1.3,1.3-2.2v-42.9c0-1.9-2-3.1-3.7-2.2l-6.2,3.4
		c-0.8,0.4-1.3,1.3-1.3,2.2v42.9C146.9,252.5,148.9,253.7,150.5,252.8z"/>
	<circle fill="#99352E" cx="205" cy="78.2" r="44.1"/>
	<circle fill="#99352E" cx="84.5" cy="77.7" r="35.1"/>
	<circle fill="#99352E" cx="59.4" cy="110.8" r="29.6"/>
	<circle fill="#D1453C" cx="215.6" cy="134.3" r="45.3"/>
	<circle fill="#D1453C" cx="145" cy="55.4" r="45.3"/>
	<circle fill="#D1453C" cx="121.3" cy="135.7" r="45.3"/>
	<circle fill="#DE584F" cx="178.5" cy="133.6" r="33.3"/>
	<circle fill="#DE584F" cx="188.3" cy="86.5" r="22.9"/>
	<circle fill="#DE584F" cx="150.4" cy="104.5" r="25.4"/>
	<circle fill="#D1453C" cx="87.9" cy="95" r="33.8"/>
	<circle fill="#DE584F" cx="107.7" cy="91.3" r="26.3"/>
</g>
</svg>
